<svg id="Group_96924" data-name="Group 96924" xmlns="http://www.w3.org/2000/svg" xmlns:xlink="http://www.w3.org/1999/xlink" width="201.312" height="151.359" viewBox="0 0 201.312 151.359">
  <defs>
    <clipPath id="clip-path">
      <rect id="Rectangle_63795" data-name="Rectangle 63795" width="201.312" height="151.359" fill="none"/>
    </clipPath>
    <clipPath id="clip-path-3">
      <rect id="Rectangle_63783" data-name="Rectangle 63783" width="200.724" height="147.232" fill="none"/>
    </clipPath>
    <clipPath id="clip-path-4">
      <rect id="Rectangle_63784" data-name="Rectangle 63784" width="116.851" height="89.975" fill="none"/>
    </clipPath>
    <clipPath id="clip-path-6">
      <rect id="Rectangle_63786" data-name="Rectangle 63786" width="10.221" height="11.97" fill="#e5bbb4"/>
    </clipPath>
    <clipPath id="clip-path-7">
      <rect id="Rectangle_63790" data-name="Rectangle 63790" width="175.867" height="2.564" fill="none"/>
    </clipPath>
  </defs>
  <g id="Group_95671" data-name="Group 95671" clip-path="url(#clip-path)">
    <g id="Group_95657" data-name="Group 95657">
      <g id="Group_95656" data-name="Group 95656" clip-path="url(#clip-path)">
        <path id="Path_32375" data-name="Path 32375" d="M34.5,143.383S9.429,125.531,2.212,95.144,6.011,27.915,26.9,9.3s58.493-6.077,75.206,9.5l16.712,15.573a78.188,78.188,0,0,0,36.843,7.976c20.89-.76,39.5,27.727,44.44,50.137s-6.837,52.037-6.837,52.037Z" transform="translate(0 0)" fill="#ddecff"/>
        <g id="Group_95652" data-name="Group 95652" transform="translate(0.392 1.088)" style="mix-blend-mode: multiply;isolation: isolate">
          <g id="Group_95651" data-name="Group 95651">
            <g id="Group_95650" data-name="Group 95650" clip-path="url(#clip-path-3)">
              <path id="Path_32376" data-name="Path 32376" d="M23.564,149.223A48.777,48.777,0,0,1,1.534,117.7c-4.558-22.03,15.193-42.161,17.092-53.176S16.348,39.832,33.82,29.2s48.618-6.837,60.392-9.5,25.448-20.89,49-16.712,46.339,16.712,47.478,44.06-7.6,28.108,1.14,42.921,12.154,25.068,7.976,40.262S186.89,149.6,186.89,149.6Z" transform="translate(-0.854 -2.37)" fill="#ddecff"/>
            </g>
          </g>
        </g>
        <g id="Group_95655" data-name="Group 95655" transform="translate(51.97 57.965)" style="mix-blend-mode: multiply;isolation: isolate">
          <g id="Group_95654" data-name="Group 95654">
            <g id="Group_95653" data-name="Group 95653" clip-path="url(#clip-path-4)">
              <path id="Path_32377" data-name="Path 32377" d="M120.849,211.335c-1.087-1.14-17.027-33.045.725-62.292s62.314-25.828,80.066-14.433,26.447,26.208,28.258,41.781-10.144,39.882-10.144,39.882Z" transform="translate(-113.234 -126.298)" fill="#ddecff"/>
            </g>
          </g>
        </g>
      </g>
    </g>
    <g id="Group_95668" data-name="Group 95668">
      <g id="Group_95667" data-name="Group 95667" clip-path="url(#clip-path)">
        <path id="Path_32378" data-name="Path 32378" d="M375.318,177.084H354.839a2.3,2.3,0,0,1-2.295-2.295V164.566a2.3,2.3,0,0,1,2.295-2.295h20.479a2.3,2.3,0,0,1,2.295,2.295V174.79a2.3,2.3,0,0,1-2.295,2.295" transform="translate(-190.741 -87.795)" fill="#60a8ff"/>
        <path id="Path_32379" data-name="Path 32379" d="M376.029,198.1l3.245-7.692h-6.491Z" transform="translate(-201.691 -103.019)" fill="#60a8ff"/>
        <path id="Path_32380" data-name="Path 32380" d="M379.685,169.971h5.862v.858l2.874-1.657-2.874-1.657v.858h-5.862Z" transform="translate(-205.426 -90.633)" fill="#223a7a"/>
        <path id="Path_32381" data-name="Path 32381" d="M388.421,179.2h-5.862v-.858L379.685,180l2.874,1.657V180.8h5.862Z" transform="translate(-205.426 -96.49)" fill="#fff"/>
        <path id="Path_32382" data-name="Path 32382" d="M366.9,174.741l-.279.1a8.852,8.852,0,0,1-1.321-2.074,7.445,7.445,0,0,1-.467-2.4l.2-.085-1.24-2.967a2.437,2.437,0,0,0-.6.682,5.67,5.67,0,0,0,.073,4.782,9.3,9.3,0,0,0,2.837,4.36,2.72,2.72,0,0,0,2.049.606Z" transform="translate(-196.236 -90.524)" fill="#223a7a"/>
        <path id="Path_32383" data-name="Path 32383" d="M373.331,182.682l-.386.14,1.269,3.037a2.252,2.252,0,0,0,.384-.166.739.739,0,0,0,.334-.921l-.663-1.67a.737.737,0,0,0-.938-.421" transform="translate(-201.779 -98.815)" fill="#223a7a"/>
        <path id="Path_32384" data-name="Path 32384" d="M366.61,166.129a2.91,2.91,0,0,0-.5.233l1.266,3.03.426-.178a.738.738,0,0,0,.4-.949l-.665-1.708a.736.736,0,0,0-.933-.428" transform="translate(-198.083 -89.859)" fill="#223a7a"/>
        <path id="Path_32385" data-name="Path 32385" d="M116.915,244.214V210.029s-.38-9.211,4.463-11.87,25.259-1.235,25.259-1.235v47.289Z" transform="translate(-63.252 -106.339)" fill="#1c83ff"/>
        <path id="Path_32386" data-name="Path 32386" d="M190.206,127.65s-1.235,10.35-1.709,11.2l-.475.855-2.374,1.614s4.558,6.457,10.16,7.5,5.127-2.279,5.127-2.279l-.855-1.8,1.14-9.875s-10.16-4.653-11.015-7.217" transform="translate(-100.443 -69.064)" fill="#ffd0c9"/>
        <path id="Path_32387" data-name="Path 32387" d="M179.234,157.4l3.7-1.614a17.43,17.43,0,0,0,7.881,6.172c5.507,2.279,5.6.95,5.887,0a3.609,3.609,0,0,0-.1-1.994l.408-3.325,2.2.734,7.645,61.844-19.656.95Z" transform="translate(-96.973 -84.288)" fill="#fff"/>
        <path id="Path_32388" data-name="Path 32388" d="M218.751,157.788s1.329,3.07,2.564,10.287a245.266,245.266,0,0,1,2.659,27.727c.285,8.356.475,27.442.475,27.442h24.784c.285,0,1.994-9.4,1.994-9.4s-10.825-9.274-11.4-10.793c-.38-1.013-.19-19.783-1.8-28.424s-3.7-10.382-8.071-12.535a94.833,94.833,0,0,0-11.2-4.3" transform="translate(-118.354 -85.37)" fill="#223a7a"/>
        <path id="Path_32389" data-name="Path 32389" d="M246.058,229.818a.23.23,0,0,1-.229-.229c0-.679-.121-10.325-.237-19.653s-.237-18.977-.237-19.659a.229.229,0,1,1,.459,0c0,.679.121,10.325.237,19.653s.238,18.977.238,19.659a.23.23,0,0,1-.229.229" transform="translate(-132.747 -102.823)" fill="#8593b6"/>
        <path id="Path_32390" data-name="Path 32390" d="M139.079,271.647l-.19,13.2h28.867s1.234-11.2.76-12.25-29.437-.95-29.437-.95" transform="translate(-75.145 -146.971)" fill="#223a7a"/>
        <g id="Group_95660" data-name="Group 95660" transform="translate(90.556 59.705)" style="mix-blend-mode: multiply;isolation: isolate">
          <g id="Group_95659" data-name="Group 95659">
            <g id="Group_95658" data-name="Group 95658" clip-path="url(#clip-path-6)">
              <path id="Path_32391" data-name="Path 32391" d="M202.813,139.89a15.107,15.107,0,0,0,4.038,2.169l.678-5.873s-7.632-3.5-10.221-6.1a15.913,15.913,0,0,0,5.505,9.8" transform="translate(-197.308 -130.089)" fill="#e5bbb4"/>
            </g>
          </g>
        </g>
        <path id="Path_32392" data-name="Path 32392" d="M213.568,83.143a20.543,20.543,0,0,1,2.374,7.6c.38,4.178,0,14.908-3.418,19.466s-10.54,3.229-13.769.475c-2.963-2.527-5.887-5.317-6.647-10.825s1.615-15.953,8.356-18.137,13.1,1.425,13.1,1.425" transform="translate(-103.865 -43.833)" fill="#ffd0c9"/>
        <path id="Path_32393" data-name="Path 32393" d="M228.232,277.966s-.335,0-.844-.014c-.119,0-.252,0-.39,0-.491-.014-1.088-.028-1.689-.046l-.4-.014c-.6-.014-1.106.06-1.583.032h-.014c-.1,0-.248.009-.367.014a.892.892,0,0,1-.151,0,2.23,2.23,0,0,1-.629-.248,42.694,42.694,0,0,0-9.849-1.313c-4.241.018-8.046.307-8.665-.211s-1-5.856,2.621-6.205l4.452,1.689s10.166-1.207,13.893,1.542,3.621,4.773,3.621,4.773" transform="translate(-109.962 -146.061)" fill="#ffd0c9"/>
        <path id="Path_32394" data-name="Path 32394" d="M240.106,283.743c-.1,0-.248.009-.367.014a4.309,4.309,0,0,0-.39-.523c-1.147-1.17-3.92-1.928-4.925-2.171a.172.172,0,0,1-.129-.207.176.176,0,0,1,.211-.129c1.464.353,4.571,1.258,5.452,2.74.028.041.1.184.147.275" transform="translate(-126.761 -151.884)" fill="#223a7a"/>
        <path id="Path_32395" data-name="Path 32395" d="M243.652,282.362c-.133,0-.271-.006-.4-.014-1.252-2.285-3.3-2.941-5.835-3.756l-.151-.05a.173.173,0,1,1,.109-.328l.146.05c2.678.859,4.833,1.55,6.134,4.1" transform="translate(-128.305 -150.522)" fill="#223a7a"/>
        <path id="Path_32396" data-name="Path 32396" d="M247.439,281.194c-.119,0-.252,0-.39-.005a10.008,10.008,0,0,0-6.6-4.894.173.173,0,0,1-.142-.2.177.177,0,0,1,.2-.137,10.25,10.25,0,0,1,6.933,5.237" transform="translate(-130.014 -149.303)" fill="#223a7a"/>
        <path id="Path_32397" data-name="Path 32397" d="M189.164,86.991a8.888,8.888,0,0,0,3.561-3.8,10.811,10.811,0,0,0,1.282-5.317,16.413,16.413,0,0,1,6.647.76c3.988,1.187,8.736,2.8,12.725.522s3.988-5.935,2.041-7.454c-2.18-1.7-6.5-.665-6.5-.665s1.662-1.614.76-2.563-4.178.285-4.178.285-3.988-3.181-11.537-2.8-11.157,5.65-11.585,11.537a32.593,32.593,0,0,0,1.709,11.775Z" transform="translate(-98.642 -35.669)" fill="#333"/>
        <path id="Path_32404" data-name="Path 32404" d="M191.441,129.064A6.877,6.877,0,0,0,194,132.245a25.322,25.322,0,0,0,5.349,2.959l.253-1.107a18.783,18.783,0,0,1-4.8-2.991,6.2,6.2,0,0,1-1.709-2.421Z" transform="translate(-103.578 -69.623)" fill="#dee1eb"/>
        <path id="Path_32405" data-name="Path 32405" d="M208.292,138.688a2.746,2.746,0,0,1,2.861,2.207c.123.9-.722,1.907-2.7,1.022-2.454-1.1-1.921-3.147-.163-3.229" transform="translate(-111.883 -75.034)" fill="#223a7a"/>
        <path id="Path_32406" data-name="Path 32406" d="M189.8,84.6a18.175,18.175,0,0,1,4.416-9.163c6.979-7.074,12.914-6.647,12.914-6.647s-.048-1-2.279-1.757a4.811,4.811,0,0,0-3.038-.332,17.581,17.581,0,0,0-10.588,5.84,22.738,22.738,0,0,0-5.365,12.2Z" transform="translate(-100.555 -36.034)" fill="#dee1eb"/>
        <path id="Path_32407" data-name="Path 32407" d="M184.672,104.248c-4.572-.775-7.122,2.8-7.312,6.409a5.5,5.5,0,0,0,5.935,6.078c7.881-.617,6.979-11.537,1.377-12.487" transform="translate(-95.954 -56.345)" fill="#fff"/>
        <path id="Path_32408" data-name="Path 32408" d="M184.517,115.561a3.116,3.116,0,0,1-2.81-1.675,3.472,3.472,0,0,1,.134-3.588.172.172,0,1,1,.285.194,3.125,3.125,0,0,0-.116,3.23,2.766,2.766,0,0,0,2.6,1.494,3.013,3.013,0,0,0,2.493-1.346,3.8,3.8,0,0,0,.376-3.372,2.566,2.566,0,0,0-2.561-1.684.172.172,0,0,1-.045-.341,2.878,2.878,0,0,1,2.929,1.9,4.159,4.159,0,0,1-.413,3.686,3.349,3.349,0,0,1-2.77,1.5h-.1" transform="translate(-98.076 -58.677)" fill="#818fb3"/>
        <path id="Path_32409" data-name="Path 32409" d="M150.534,156.409s-13.864,3.418-18.707,8.926-7.122,32.665-7.217,37.7,3.418,7.122,5.507,8.546,11.3,3.988,18.707,4.368,14.433,0,14.433,0a9.864,9.864,0,0,1,1.116-3.988,4.913,4.913,0,0,1,2.4-2.659l-6.362-2.279s-1.114-19.962-2.849-29.627a85.874,85.874,0,0,0-7.027-20.985" transform="translate(-67.419 -84.624)" fill="#223a7a"/>
        <path id="Path_32410" data-name="Path 32410" d="M226.528,205.184a.23.23,0,0,1-.21-.322c1.3-2.931,2.645-8.684,3.4-12.721l.062-.326c.229-1.187.515-2.664-.055-3.683-.291-.52-.947-1.648-1.578-2.733-.655-1.126-1.273-2.19-1.445-2.507-.335-.62.718-2.276,2.242-4.547.412-.614.767-1.144.975-1.5.543-.94.182-1.8-.237-2.8l-.143-.343c-.38-.932-.811-1.865-1.228-2.768-.171-.369-.341-.738-.509-1.109q-.334-.737-.673-1.5a87.509,87.509,0,0,0-4.506-9.072.229.229,0,0,1,.394-.235,87.862,87.862,0,0,1,4.53,9.119q.34.757.672,1.494.253.555.508,1.106c.419.907.853,1.846,1.236,2.787l.141.339c.427,1.017.868,2.068.211,3.2-.215.373-.575.909-.991,1.529-.794,1.185-2.448,3.65-2.22,4.074.168.311.785,1.371,1.437,2.494.632,1.087,1.291,2.218,1.582,2.739.652,1.166.348,2.734.1,3.994l-.062.324c-.276,1.47-1.739,9-3.434,12.822a.229.229,0,0,1-.21.137" transform="translate(-120.433 -85.977)" fill="#8593b6"/>
        <path id="Path_32411" data-name="Path 32411" d="M187.851,205.1a.229.229,0,0,1-.163-.068c-1.079-1.087-6.282-10.1-6.67-11.792-.212-.928.32-3.28.835-5.556a18.24,18.24,0,0,0,.694-4.079c-.176-.738-1.506-1.825-2.793-2.876-1.554-1.269-3.162-2.583-3.473-3.766-.354-1.344-.051-9.76.149-15.329.072-2,.128-3.584.128-4.148a.229.229,0,0,1,.459,0c0,.573-.056,2.158-.129,4.165-.187,5.205-.5,13.916-.164,15.2.274,1.038,1.892,2.36,3.32,3.527,1.408,1.15,2.737,2.237,2.948,3.125a16.328,16.328,0,0,1-.693,4.286c-.48,2.122-1.024,4.526-.836,5.353.38,1.661,5.489,10.5,6.548,11.57a.23.23,0,0,1-.163.391" transform="translate(-95.288 -85.081)" fill="#8593b6"/>
        <path id="Path_32412" data-name="Path 32412" d="M160.756,220.768l-.032,0a.23.23,0,0,1-.2-.259c.169-1.194,2.8-24.968,2.924-26.788a.227.227,0,0,1,.245-.214.229.229,0,0,1,.213.244c-.121,1.824-2.758,25.627-2.927,26.822a.23.23,0,0,1-.227.2" transform="translate(-86.851 -104.693)" fill="#8593b6"/>
        <path id="Path_32413" data-name="Path 32413" d="M173.943,256.585a.24.24,0,0,1-.086-.017c-.583-.237-3.163-1.107-6.427-2.208-6.59-2.222-15.615-5.266-17.332-6.158a.229.229,0,1,1,.212-.407c1.685.875,11.062,4.037,17.266,6.129,3.272,1.1,5.857,1.975,6.453,2.217a.23.23,0,0,1-.086.442" transform="translate(-81.143 -134.054)" fill="#8593b6"/>
        <path id="Path_32414" data-name="Path 32414" d="M164.954,282.283c-5.8,0-17.043-1.046-25.585-4.066a.23.23,0,0,1,.153-.433c10.79,3.817,25.884,4.469,28.693,3.838a.23.23,0,1,1,.1.448,18.307,18.307,0,0,1-3.361.213" transform="translate(-75.322 -150.285)" fill="#8593b6"/>
        <path id="Path_32415" data-name="Path 32415" d="M47.537,143.779c1.8,1.584,4.081,2.6,5.661,4.43.622.721,1.18,1.487,1.757,2.243.42.55,1.541,1.462,1.723,2.153.08.3.063-.108-.017-.413,0-.013-.01-.025-.014-.038-.157-1.4-.271-2.8-.319-4.212s.038-2.813-.05-4.215A6.7,6.7,0,0,0,53.92,138.6c-.79-.606-1.806-.974-2.532-1.646-.689-.638-.413-1.369-.007-2.08a7.086,7.086,0,0,0,.987-2.086,3.684,3.684,0,0,0-.6-2.511c-.94-1.578-3.026-3.339-5-3.1-1.647.2-1.834,2.1-1.81,3.421.023,1.286.15,2.569.162,3.857.013,1.323-.212,2.621-.231,3.938a6.835,6.835,0,0,0,2.65,5.395" transform="translate(-24.285 -68.792)" fill="#6baeff"/>
        <path id="Path_32416" data-name="Path 32416" d="M57.973,175.548a21.135,21.135,0,0,1,1.784-3.4,26.182,26.182,0,0,0,2.7-4.616,15.926,15.926,0,0,0,.633-5.326,34.313,34.313,0,0,0,.335-3.959c-.051-.635-.417-1.661-1.238-1.556-.639.082-1.018.874-1.264,1.379a24.287,24.287,0,0,0-1.044,2.748c-.124.362-.243.731-.4,1.08-.092.2-.382.7-.656.632-.466-.116-.043-2.02.026-2.358a30.964,30.964,0,0,0,.946-5.013c.106-2.528-.091-5.537-2.563-6.92a1.769,1.769,0,0,0-2.08-.036,3.461,3.461,0,0,0-.867,2.218,15.2,15.2,0,0,0,1.022,6.742,19.508,19.508,0,0,1,1.408,5.625c.052,1.867-.92,3.522-1.375,5.285a16.712,16.712,0,0,0-.58,5.211c0,1.14.037,2.268.12,3.405.077,1.045.167,2.091.3,3.131.026.211.05.43.078.65-.4-.967-.542-2.075-.874-3.047-.591-1.727-1.277-3.419-1.845-5.155A42.77,42.77,0,0,0,51,168.013a10.313,10.313,0,0,0-2.364-3.61,3.449,3.449,0,0,0-2.323-.9,6.419,6.419,0,0,0-1.6.34,1.8,1.8,0,0,1-1.717-.3c-1.772-1.362-2.311-3.8-3.623-5.529-.979-1.286-3.3-3.479-5.007-2.077a4.128,4.128,0,0,0-1.108,3.285,7.958,7.958,0,0,0,1.384,3.8c.766,1.23,1.754,2.331,2.458,3.6a3.819,3.819,0,0,1,.414,2.305,5.491,5.491,0,0,0,.14,2.327c.812,2.3,3.349,1.979,5.322,2.039a14.763,14.763,0,0,1,4.172.689,4.638,4.638,0,0,1,3.042,2.994,10.771,10.771,0,0,0,1.339,3.237,3.445,3.445,0,0,0,1.312.977c.77.34,3.115.488,3.132.274a10.521,10.521,0,0,1,.611-2.155c.4-1.276.869-2.521,1.386-3.754" transform="translate(-17.993 -80.008)" fill="#6baeff"/>
        <path id="Path_32417" data-name="Path 32417" d="M95.37,202.442a12.738,12.738,0,0,0-.787-3.97.18.18,0,0,0-.242-.063c-.446.247-.465.968-.5,1.409-.061.732-.016,1.467-.106,2.2a16.477,16.477,0,0,1-.917,3.816,4.1,4.1,0,0,1-2.856,2.572,7.231,7.231,0,0,0-2.5,1.1A5.266,5.266,0,0,0,86,211.526a30.273,30.273,0,0,0-1.789,6.59c-.288,1.488-.523,2.983-.884,4.456a43.819,43.819,0,0,0-.956,4.441c-.035.076-.072.151-.1.227-.095.225.257.347.379.16a14.783,14.783,0,0,1,5.533-5.374c1.07-.546,2.492-.659,3.385-1.517a2.967,2.967,0,0,0,.671-2.536,7.972,7.972,0,0,0-1.275-3.12,2.635,2.635,0,0,1-.569-1.794,2.314,2.314,0,0,1,1.159-1.407c.985-.612,2.137-.887,2.944-1.769a4.833,4.833,0,0,0,1.248-2.941,20.284,20.284,0,0,0-.368-4.5" transform="translate(-44.499 -107.335)" fill="#6baeff"/>
        <path id="Path_32418" data-name="Path 32418" d="M59.018,217.714a18.924,18.924,0,0,0-4.486-4.154c-.911-.605-3.063-1.8-3.5-.014-.255,1.047.77,2.077,1.444,2.733a27.656,27.656,0,0,1,3.041,2.974,8.7,8.7,0,0,0-3.085,1.135,2.434,2.434,0,0,0-.5,3.6,6.844,6.844,0,0,0,1.879,1.152c.852.413,1.719.786,2.592,1.151a21.881,21.881,0,0,1,5.4,2.876,8.7,8.7,0,0,1,3.309,5.682c.013.2-.065.018.057-.075.067.06.291-.047.291-.167a22.626,22.626,0,0,0-1.906-9.129,38.123,38.123,0,0,0-4.544-7.767" transform="translate(-27.591 -115.028)" fill="#6baeff"/>
        <path id="Path_32419" data-name="Path 32419" d="M58.987,158.934c.694,1.441,1.42,2.848,2.191,4.253a34.243,34.243,0,0,1,2.037,4.138c.683,1.777,1.4,3.527,2.122,5.288a52.189,52.189,0,0,1,1.961,5.6A66.465,66.465,0,0,1,69.516,189.6a46.248,46.248,0,0,1,.231,5.886c-.042,1.535-.215,3.053-.359,4.58a27.131,27.131,0,0,0-.125,4.791c.111,1.333.323,2.917,1.358,3.868a.238.238,0,0,0,.372-.287c-1.229-2.521-1.16-5.268-.925-8,.129-1.509.31-3.01.36-4.524a45.3,45.3,0,0,0-.192-5.777,68.363,68.363,0,0,0-2.085-11.16,50.364,50.364,0,0,0-1.833-5.522c-.715-1.81-1.541-3.57-2.234-5.389a74.363,74.363,0,0,0-4.855-9.271c-.088-.159-.319-.019-.241.141" transform="translate(-31.906 -85.875)" fill="#43578e"/>
        <path id="Path_32420" data-name="Path 32420" d="M81.828,202.141a27.226,27.226,0,0,1,1.219-6.987c.377-1.066.833-2.1,1.2-3.172a6.034,6.034,0,0,0,.518-3.037.108.108,0,0,0-.207,0c-.155.537-.138,1.125-.249,1.676a14.849,14.849,0,0,1-.42,1.582c-.354,1.107-.817,2.168-1.219,3.257a16.12,16.12,0,0,0-1,6.68.082.082,0,0,0,.165,0" transform="translate(-44.163 -102.186)" fill="#43578e"/>
        <path id="Path_32421" data-name="Path 32421" d="M51.814,187.607c.951,2.3,3.809,2.429,5.891,2.944a5.522,5.522,0,0,1,3.372,2.647A20.208,20.208,0,0,1,63,197.832a.014.014,0,0,0,.028-.007c-.582-2.753-1.416-6.068-4.255-7.349-2.274-1.027-5.271-.511-6.726-2.968-.072-.121-.294-.039-.236.1" transform="translate(-28.028 -101.418)" fill="#43578e"/>
        <path id="Path_32422" data-name="Path 32422" d="M78.787,216.94c.113.153.217.312.334.462a1.243,1.243,0,0,0,.189.2.443.443,0,0,0,.265.135.058.058,0,0,0,.05-.086.91.91,0,0,0-.2-.181c-.068-.06-.138-.119-.2-.182-.133-.126-.254-.262-.385-.391-.025-.025-.073.009-.05.039" transform="translate(-42.624 -117.348)" fill="#43578e"/>
        <path id="Path_32423" data-name="Path 32423" d="M65.794,232.624a23.138,23.138,0,0,1,4.355,4.685,28.33,28.33,0,0,1,1.587,2.609,29.119,29.119,0,0,1,1.282,3.024c.031.078.173.079.162-.022-.228-2.16-1.6-4.012-2.692-5.809a13.851,13.851,0,0,0-2.038-2.465,18.093,18.093,0,0,0-2.508-2.213c-.112-.079-.255.1-.148.191" transform="translate(-35.577 -125.745)" fill="#43578e"/>
        <path id="Path_32424" data-name="Path 32424" d="M88.526,227.311c-.79.447-.816,1.7-.831,2.492-.03,1.531.349,2.969-.323,4.428a34.462,34.462,0,0,1-2.338,3.64,7.923,7.923,0,0,0-1.4,3.988c0,.08.123.124.16.043a16.639,16.639,0,0,0,.6-1.992,8.358,8.358,0,0,1,.973-2.056,33.688,33.688,0,0,0,2.229-3.393,7.973,7.973,0,0,0,.494-3.959c-.026-.89-.116-2.32.6-2.982.112-.1-.031-.282-.161-.208" transform="translate(-45.249 -122.975)" fill="#43578e"/>
        <path id="Path_32425" data-name="Path 32425" d="M71.89,259.247c-3.182-.044-9.243-.079-9.243-.079l1.5,11.135a5.049,5.049,0,0,0,5,4.375h5.479a5.049,5.049,0,0,0,5-4.375l1.5-11.135s-6.061.035-9.242.079" transform="translate(-33.895 -140.221)" fill="#fff"/>
        <path id="Path_32426" data-name="Path 32426" d="M334.1,214.157l-18.153,35.957-52.922.38,16.332-36.843Z" transform="translate(-142.309 -115.594)" fill="#f6f7fa"/>
        <path id="Path_32427" data-name="Path 32427" d="M186.5,249.3l.01-2.878h34.259l15.762-34.564h54.79l1.377,1.329H239.172l-16.38,36.084S186.5,249.2,186.5,249.3" transform="translate(-100.903 -114.624)" fill="#dadee8"/>
        <path id="Path_32428" data-name="Path 32428" d="M343.363,253.971c-.6,1.794-3.843,3.178-7.248,3.093s-5.681-1.608-5.083-3.4,3.843-3.178,7.248-3.093,5.681,1.608,5.083,3.4" transform="translate(-179.051 -135.567)" fill="#dadee8"/>
        <path id="Path_32429" data-name="Path 32429" d="M265.309,250.8a.233.233,0,0,1-.1-.021.229.229,0,0,1-.114-.3l16.441-36.218h53.672a.229.229,0,0,1,0,.459H281.837l-16.319,35.949a.229.229,0,0,1-.209.134" transform="translate(-143.419 -115.92)" fill="#fff"/>
        <rect id="Rectangle_63788" data-name="Rectangle 63788" width="62.956" height="13.958" transform="translate(20.254 137.401)" fill="#596b9b"/>
        <rect id="Rectangle_63789" data-name="Rectangle 63789" width="113.27" height="13.958" transform="translate(82.851 137.401)" fill="#7a89af"/>
        <g id="Group_95666" data-name="Group 95666" transform="translate(20.254 137.4)" style="mix-blend-mode: multiply;isolation: isolate">
          <g id="Group_95665" data-name="Group 95665">
            <g id="Group_95664" data-name="Group 95664" clip-path="url(#clip-path-7)">
              <path id="Path_32430" data-name="Path 32430" d="M107.086,299.375H44.13v2.564H220v-2.564Z" transform="translate(-44.13 -299.375)" fill="#bdc4d7"/>
            </g>
          </g>
        </g>
        <rect id="Rectangle_63791" data-name="Rectangle 63791" width="68.749" height="3.418" transform="translate(17.216 134.647)" fill="#6f7fa9"/>
        <rect id="Rectangle_63792" data-name="Rectangle 63792" width="113.27" height="3.418" transform="translate(85.604 134.647)" fill="#9ca6c3"/>
        <path id="Path_32431" data-name="Path 32431" d="M117.535,114.853H95.31a2.49,2.49,0,0,1-2.49-2.49V101.268a2.491,2.491,0,0,1,2.49-2.491h22.225a2.491,2.491,0,0,1,2.49,2.491v11.095a2.49,2.49,0,0,1-2.49,2.49" transform="translate(-50.22 -53.443)" fill="#fff"/>
        <path id="Path_32432" data-name="Path 32432" d="M156.057,112.138l-8.347-3.522v7.044Z" transform="translate(-79.917 -58.766)" fill="#fff"/>
        <path id="Path_32433" data-name="Path 32433" d="M110.7,114.478a1.538,1.538,0,1,1-1.538-1.538,1.538,1.538,0,0,1,1.538,1.538" transform="translate(-58.227 -61.105)" fill="#223a7a"/>
        <path id="Path_32434" data-name="Path 32434" d="M122.183,114.478a1.538,1.538,0,1,1-1.538-1.538,1.538,1.538,0,0,1,1.538,1.538" transform="translate(-64.442 -61.105)" fill="#223a7a"/>
        <path id="Path_32435" data-name="Path 32435" d="M133.671,114.478a1.538,1.538,0,1,1-1.538-1.538,1.538,1.538,0,0,1,1.538,1.538" transform="translate(-70.658 -61.105)" fill="#223a7a"/>
        <path id="Path_32436" data-name="Path 32436" d="M325.681,24.409H274.372a5.966,5.966,0,0,0-5.966,5.966V54.716a5.967,5.967,0,0,0,5.966,5.966h4.6a21.073,21.073,0,0,1-2.029,9.685,25.778,25.778,0,0,0,11.124-9.685h37.615a5.967,5.967,0,0,0,5.966-5.966V30.375a5.966,5.966,0,0,0-5.966-5.966" transform="translate(-145.219 -13.206)" fill="#60a8ff"/>
        <path id="Path_32437" data-name="Path 32437" d="M314.017,46.7H288.568a1.266,1.266,0,1,1,0-2.532h25.448a1.266,1.266,0,1,1,0,2.532" transform="translate(-155.442 -23.897)" fill="#fff"/>
        <path id="Path_32438" data-name="Path 32438" d="M332.264,63.926H288.078a.775.775,0,1,1,0-1.551h44.187a.775.775,0,1,1,0,1.551" transform="translate(-155.442 -33.748)" fill="#d2e6ff"/>
        <path id="Path_32439" data-name="Path 32439" d="M332.264,73.3H288.078a.775.775,0,1,1,0-1.551h44.187a.775.775,0,1,1,0,1.551" transform="translate(-155.442 -38.822)" fill="#d2e6ff"/>
        <path id="Path_32440" data-name="Path 32440" d="M322.626,83.3H288.078a.775.775,0,0,1,0-1.551h34.548a.775.775,0,1,1,0,1.551" transform="translate(-155.443 -44.232)" fill="#d2e6ff"/>
        <path id="Path_32441" data-name="Path 32441" d="M368.709,46.7h-12.14a1.266,1.266,0,0,1,0-2.532h12.14a1.266,1.266,0,1,1,0,2.532" transform="translate(-192.234 -23.897)" fill="#fff"/>
        <path id="Path_32442" data-name="Path 32442" d="M300.514,158.385H286.73a.918.918,0,0,1-.918-.918v-9.416a.918.918,0,0,1,.918-.918h13.784a.918.918,0,0,1,.918.918v9.416a.918.918,0,0,1-.918.918" transform="translate(-154.636 -79.605)" fill="#fff"/>
        <path id="Path_32443" data-name="Path 32443" d="M293.787,154.744a.343.343,0,0,1-.219-.079l-7.5-6.2a.344.344,0,0,1,.438-.531l7.277,6.011,7.092-6.171a.344.344,0,0,1,.452.52l-7.312,6.362a.344.344,0,0,1-.226.084" transform="translate(-154.706 -79.908)" fill="#6f7fa9"/>
        <path id="Path_32444" data-name="Path 32444" d="M286.284,163.776a.339.339,0,0,1-.237-.1.343.343,0,0,1-.012-.486l5.247-5.516a.344.344,0,0,1,.5.475l-5.247,5.516a.343.343,0,0,1-.249.107" transform="translate(-154.706 -85.253)" fill="#6f7fa9"/>
        <path id="Path_32445" data-name="Path 32445" d="M312.4,163.662a.343.343,0,0,1-.244-.1l-5.226-5.24a.344.344,0,0,1,.487-.486l5.226,5.24a.344.344,0,0,1-.244.587" transform="translate(-166.008 -85.341)" fill="#6f7fa9"/>
        <path id="Path_32446" data-name="Path 32446" d="M320.582,140.945a4.605,4.605,0,1,1-4.605-4.606,4.605,4.605,0,0,1,4.605,4.606" transform="translate(-168.465 -73.765)" fill="#ff5f42"/>
      </g>
    </g>
    <text id="_85" data-name="85" transform="translate(144.275 67.616)" fill="#fff" font-size="4" font-family="Quicksand-Bold, Quicksand" font-weight="700"><tspan x="0" y="0">85</tspan></text>
    <g id="Group_95670" data-name="Group 95670">
      <g id="Group_95669" data-name="Group 95669" clip-path="url(#clip-path)">
        <path id="Path_32447" data-name="Path 32447" d="M388.308,133.39H361.4a1.836,1.836,0,0,1-1.836-1.836v-4.21a1.836,1.836,0,0,1,1.836-1.836h26.9a1.836,1.836,0,0,1,1.836,1.836v4.21a1.836,1.836,0,0,1-1.836,1.836" transform="translate(-194.541 -67.906)" fill="#223a7a"/>
        <path id="Path_32448" data-name="Path 32448" d="M365.614,133.725a.362.362,0,0,1-.29-.129.433.433,0,0,1-.1-.323l.117-1.02c.008-.026,0-.043-.013-.052a.066.066,0,0,0-.065.013l-.839.607a.4.4,0,0,1-.323.084.4.4,0,0,1-.271-.2.391.391,0,0,1-.045-.362.415.415,0,0,1,.239-.219l.943-.426c.026-.009.039-.022.039-.039s-.013-.03-.039-.039l-.943-.426a.385.385,0,0,1-.233-.246.424.424,0,0,1,.039-.335.4.4,0,0,1,.271-.2.424.424,0,0,1,.323.071l.839.62a.064.064,0,0,0,.065.013c.017-.008.021-.026.013-.051l-.117-1.021a.419.419,0,0,1,.1-.323.4.4,0,0,1,.31-.129.384.384,0,0,1,.387.452l-.116,1.021c-.009.026,0,.043.013.051a.063.063,0,0,0,.064-.013l.84-.607a.407.407,0,0,1,.329-.084.368.368,0,0,1,.265.2.389.389,0,0,1,.045.362.416.416,0,0,1-.239.219l-.943.426c-.026.009-.039.022-.039.039s.013.03.039.039l.943.426a.407.407,0,0,1,.239.245.378.378,0,0,1-.045.336.365.365,0,0,1-.265.2.433.433,0,0,1-.329-.071l-.84-.621a.065.065,0,0,0-.064-.013c-.018.009-.022.026-.013.052l.116,1.02a.373.373,0,0,1-.1.323.42.42,0,0,1-.317.129" transform="translate(-196.809 -70.115)" fill="#fff"/>
        <path id="Path_32449" data-name="Path 32449" d="M377.739,133.725a.362.362,0,0,1-.29-.129.433.433,0,0,1-.1-.323l.117-1.02c.008-.026,0-.043-.013-.052a.066.066,0,0,0-.065.013l-.839.607a.4.4,0,0,1-.323.084.4.4,0,0,1-.271-.2.391.391,0,0,1-.045-.362.415.415,0,0,1,.239-.219l.943-.426c.026-.009.039-.022.039-.039s-.013-.03-.039-.039l-.943-.426a.385.385,0,0,1-.233-.246.424.424,0,0,1,.039-.335.4.4,0,0,1,.271-.2.424.424,0,0,1,.323.071l.839.62a.064.064,0,0,0,.065.013c.017-.008.021-.026.013-.051l-.117-1.021a.419.419,0,0,1,.1-.323.4.4,0,0,1,.31-.129.384.384,0,0,1,.387.452l-.116,1.021c-.009.026,0,.043.013.051a.063.063,0,0,0,.064-.013l.84-.607a.408.408,0,0,1,.33-.084.369.369,0,0,1,.264.2.388.388,0,0,1,.045.362.416.416,0,0,1-.239.219l-.943.426c-.026.009-.039.022-.039.039s.013.03.039.039l.943.426a.407.407,0,0,1,.239.245.378.378,0,0,1-.045.336.366.366,0,0,1-.264.2.434.434,0,0,1-.33-.071l-.84-.621a.065.065,0,0,0-.064-.013c-.018.009-.022.026-.013.052l.116,1.02a.373.373,0,0,1-.1.323.42.42,0,0,1-.317.129" transform="translate(-203.369 -70.115)" fill="#fff"/>
        <path id="Path_32450" data-name="Path 32450" d="M389.863,133.725a.363.363,0,0,1-.291-.129.433.433,0,0,1-.1-.323l.117-1.02c.008-.026,0-.043-.013-.052a.066.066,0,0,0-.065.013l-.839.607a.4.4,0,0,1-.323.084.4.4,0,0,1-.271-.2.391.391,0,0,1-.045-.362.415.415,0,0,1,.239-.219l.943-.426c.026-.009.039-.022.039-.039s-.013-.03-.039-.039l-.943-.426a.385.385,0,0,1-.233-.246.424.424,0,0,1,.039-.335.4.4,0,0,1,.271-.2.424.424,0,0,1,.323.071l.839.62a.064.064,0,0,0,.065.013c.017-.008.021-.026.013-.051l-.117-1.021a.419.419,0,0,1,.1-.323.4.4,0,0,1,.31-.129.384.384,0,0,1,.387.452l-.116,1.021c-.009.026,0,.043.013.051a.063.063,0,0,0,.064-.013l.84-.607a.407.407,0,0,1,.329-.084.368.368,0,0,1,.265.2.389.389,0,0,1,.045.362.416.416,0,0,1-.239.219l-.943.426c-.026.009-.039.022-.039.039s.013.03.039.039l.943.426a.407.407,0,0,1,.239.245.378.378,0,0,1-.045.336.365.365,0,0,1-.265.2.433.433,0,0,1-.329-.071l-.84-.621a.065.065,0,0,0-.064-.013c-.018.009-.022.026-.013.052l.116,1.02a.373.373,0,0,1-.1.323.42.42,0,0,1-.317.129" transform="translate(-209.929 -70.115)" fill="#fff"/>
        <path id="Path_32451" data-name="Path 32451" d="M401.988,133.725a.363.363,0,0,1-.291-.129.433.433,0,0,1-.1-.323l.117-1.02c.008-.026,0-.043-.013-.052a.066.066,0,0,0-.065.013l-.839.607a.4.4,0,0,1-.323.084.4.4,0,0,1-.271-.2.391.391,0,0,1-.045-.362.415.415,0,0,1,.239-.219l.943-.426c.026-.009.039-.022.039-.039s-.013-.03-.039-.039l-.943-.426a.385.385,0,0,1-.233-.246.424.424,0,0,1,.039-.335.4.4,0,0,1,.271-.2.424.424,0,0,1,.323.071l.839.62a.064.064,0,0,0,.065.013c.017-.008.021-.026.013-.051l-.117-1.021a.419.419,0,0,1,.1-.323.4.4,0,0,1,.31-.129.384.384,0,0,1,.387.452l-.116,1.021c-.009.026,0,.043.013.051a.063.063,0,0,0,.064-.013l.84-.607a.407.407,0,0,1,.329-.084.368.368,0,0,1,.265.2.388.388,0,0,1,.045.362.416.416,0,0,1-.239.219l-.943.426c-.026.009-.039.022-.039.039s.013.03.039.039l.943.426a.407.407,0,0,1,.239.245.378.378,0,0,1-.045.336.365.365,0,0,1-.265.2.433.433,0,0,1-.329-.071l-.84-.621a.065.065,0,0,0-.064-.013c-.018.009-.022.026-.013.052l.116,1.02a.373.373,0,0,1-.1.323.42.42,0,0,1-.317.129" transform="translate(-216.489 -70.115)" fill="#fff"/>
        <path id="Path_32452" data-name="Path 32452" d="M414.113,133.725a.363.363,0,0,1-.291-.129.433.433,0,0,1-.1-.323l.117-1.02c.008-.026,0-.043-.013-.052a.066.066,0,0,0-.065.013l-.839.607a.4.4,0,0,1-.323.084.4.4,0,0,1-.271-.2.391.391,0,0,1-.045-.362.415.415,0,0,1,.239-.219l.943-.426c.026-.009.039-.022.039-.039s-.013-.03-.039-.039l-.943-.426a.385.385,0,0,1-.233-.246.424.424,0,0,1,.039-.335.4.4,0,0,1,.271-.2.424.424,0,0,1,.323.071l.839.62a.064.064,0,0,0,.065.013c.017-.008.021-.026.013-.051l-.117-1.021a.419.419,0,0,1,.1-.323.4.4,0,0,1,.31-.129.384.384,0,0,1,.387.452l-.116,1.021c-.009.026,0,.043.013.051a.063.063,0,0,0,.064-.013l.84-.607a.407.407,0,0,1,.329-.084.368.368,0,0,1,.265.2.388.388,0,0,1,.045.362.416.416,0,0,1-.239.219l-.943.426c-.026.009-.039.022-.039.039s.013.03.039.039l.943.426a.407.407,0,0,1,.239.245.378.378,0,0,1-.045.336.365.365,0,0,1-.265.2.433.433,0,0,1-.329-.071l-.84-.621a.065.065,0,0,0-.064-.013c-.018.009-.022.026-.013.052l.116,1.02a.373.373,0,0,1-.1.323.42.42,0,0,1-.317.129" transform="translate(-223.049 -70.115)" fill="#67acff"/>
      </g>
    </g>
  </g>
</svg>
