<svg id="Group_96923" data-name="Group 96923" xmlns="http://www.w3.org/2000/svg" xmlns:xlink="http://www.w3.org/1999/xlink" width="239.309" height="155.094" viewBox="0 0 239.309 155.094">
  <defs>
    <clipPath id="clip-path">
      <rect id="Rectangle_64019" data-name="Rectangle 64019" width="239.309" height="155.094" fill="none"/>
    </clipPath>
    <clipPath id="clip-path-2">
      <path id="Path_33569" data-name="Path 33569" d="M159.774,49.539c-14.316,2.612-26.32,15.815-28.234,31.057-1.9,15.1,14.017,27.23.47,45.367-4.234,5.668-7.05,13.559-5.178,20.507,1.818,6.751,9.557,11.021,9.613,18.041.044,5.542-4.892,9.951-5.29,15.477-.341,4.743,2.882,9.128,6.843,11.376s8.557,2.8,13.025,3.307l-1.317,1.5c22.508,2.138,45.155,1.662,67.749,1.185l106.891-2.26c3.662-.077,7.413-.173,10.825-1.582s6.472-4.426,6.992-8.263c.884-6.53-5.565-12.2-4.969-18.765.761-8.385,11.918-11.62,14.04-19.74a10.707,10.707,0,0,0,.347-2.719v0c0-4.808-3.088-9.473-6.376-13.078-3.907-4.283-8.527-8.46-9.732-14.276-2.085-10.063,6.83-18.643,9.748-28.471a25.538,25.538,0,0,0-2.753-20.463,22.8,22.8,0,0,0-16.776-10.581c-5.4-.524-10.749,1-16.075,2.526-6.046,1.731-12.064,3.463-18.1,2.2-9.1-1.907-16.284-10.32-25.517-11.222-10.865-1.06-19.88,8.432-30.255,12.007-12.41,4.275-25.865-.193-38.067-5.1-10.192-4.1-20.83-8.587-31.553-8.587a35.272,35.272,0,0,0-6.347.561" transform="translate(-126.242 -48.978)" fill="#eaf2fd"/>
    </clipPath>
    <clipPath id="clip-path-4">
      <rect id="Rectangle_63924" data-name="Rectangle 63924" width="44.224" height="46.861" fill="none"/>
    </clipPath>
    <clipPath id="clip-path-5">
      <path id="Path_33582" data-name="Path 33582" d="M509.975,429.607,355.97,433.592a5.075,5.075,0,0,0-5.344,4.492l1.311,90.557a2.921,2.921,0,0,0,2.914,2.911H512.432a2.921,2.921,0,0,0,2.914-2.911l2.164-91.524a7.343,7.343,0,0,0-7.344-7.513l-.191,0" transform="translate(-350.626 -429.605)" fill="#444"/>
    </clipPath>
    <clipPath id="clip-path-6">
      <path id="Path_33583" data-name="Path 33583" d="M541.763,460.809l-147.6,3.96a6.785,6.785,0,0,0-7.112,6.62l1.237,82.209a2.765,2.765,0,0,0,2.757,2.757H542.105a2.765,2.765,0,0,0,2.757-2.757l2.2-87.508a5.161,5.161,0,0,0-5.157-5.283l-.138,0" transform="translate(-387.05 -460.807)" fill="#eee"/>
    </clipPath>
    <clipPath id="clip-path-8">
      <path id="Path_33586" data-name="Path 33586" d="M595.721,516.64c-2.7.219-107.537,2.534-119.962,3.119s-20.518,1.56-20.129,6.756.449,65.365.291,72.16c-.063,2.694,3.023,3.346,10.431,3.126,6.437-.192,103.129-.469,128.357-.538a6.183,6.183,0,0,0,6.169-5.993c.348-11.206,1.1-35.572,1.56-50.364.591-19.183-.585-28.285-6.258-28.284-.149,0-.3.006-.458.019" transform="translate(-455.617 -516.621)" fill="#fff"/>
    </clipPath>
    <clipPath id="clip-path-9">
      <rect id="Rectangle_63931" data-name="Rectangle 63931" width="185.782" height="7.957" rx="3.978" fill="#444"/>
    </clipPath>
    <clipPath id="clip-path-11">
      <rect id="Rectangle_63944" data-name="Rectangle 63944" width="133.436" height="53.931" fill="#aad0ff"/>
    </clipPath>
    <clipPath id="clip-path-12">
      <rect id="Rectangle_63948" data-name="Rectangle 63948" width="1.275" height="5.01" fill="none"/>
    </clipPath>
    <clipPath id="clip-path-13">
      <path id="Path_33591" data-name="Path 33591" d="M116.03,657.194a.637.637,0,1,1-.637-.637.637.637,0,0,1,.637.637" transform="translate(-114.755 -656.557)" fill="none"/>
    </clipPath>
    <linearGradient id="linear-gradient" x1="-9.962" y1="64.66" x2="-9.875" y2="64.66" gradientUnits="objectBoundingBox">
      <stop offset="0" stop-color="#dae3fe"/>
      <stop offset="1" stop-color="#e9effd"/>
    </linearGradient>
    <clipPath id="clip-path-14">
      <path id="Path_33592" data-name="Path 33592" d="M116.03,674.071a.637.637,0,1,1-.637-.637.637.637,0,0,1,.637.637" transform="translate(-114.755 -673.434)" fill="none"/>
    </clipPath>
    <linearGradient id="linear-gradient-2" x1="-9.962" y1="63.195" x2="-9.875" y2="63.195" xlink:href="#linear-gradient"/>
    <clipPath id="clip-path-15">
      <path id="Path_33593" data-name="Path 33593" d="M116.03,690.948a.637.637,0,1,1-.637-.637.638.638,0,0,1,.637.637" transform="translate(-114.755 -690.311)" fill="none"/>
    </clipPath>
    <linearGradient id="linear-gradient-3" x1="-9.962" y1="61.73" x2="-9.875" y2="61.73" xlink:href="#linear-gradient"/>
    <clipPath id="clip-path-16">
      <path id="Path_33594" data-name="Path 33594" d="M136.858,774.971a10.1,10.1,0,1,0,10.1-10.1,10.1,10.1,0,0,0-10.1,10.1" transform="translate(-136.858 -764.869)" fill="none"/>
    </clipPath>
    <linearGradient id="linear-gradient-4" x1="-0.75" y1="3.487" x2="-0.744" y2="3.487" xlink:href="#linear-gradient"/>
    <clipPath id="clip-path-18">
      <path id="Path_33598" data-name="Path 33598" d="M363.866,784.6l.02-.166a1.32,1.32,0,0,0-.02.166" transform="translate(-363.866 -784.432)" fill="none"/>
    </clipPath>
    <linearGradient id="linear-gradient-5" x1="-1977.963" y1="411.851" x2="-1972.527" y2="411.851" gradientUnits="objectBoundingBox">
      <stop offset="0" stop-color="#4042e2"/>
      <stop offset="1" stop-color="#4f52ff"/>
    </linearGradient>
    <clipPath id="clip-path-20">
      <path id="Path_33600" data-name="Path 33600" d="M363.866,865.68l.02-.166a1.321,1.321,0,0,0-.02.166" transform="translate(-363.866 -865.514)" fill="none"/>
    </clipPath>
    <linearGradient id="linear-gradient-6" x1="-1977.963" y1="357.71" x2="-1972.527" y2="357.71" gradientUnits="objectBoundingBox">
      <stop offset="0" stop-color="#09005d"/>
      <stop offset="1" stop-color="#1a0f91"/>
    </linearGradient>
    <clipPath id="clip-path-22">
      <path id="Path_33602" data-name="Path 33602" d="M363.866,946.762l.02-.166a1.322,1.322,0,0,0-.02.166" transform="translate(-363.866 -946.596)" fill="none"/>
    </clipPath>
    <linearGradient id="linear-gradient-7" x1="-1977.963" y1="303.598" x2="-1972.527" y2="303.598" xlink:href="#linear-gradient-5"/>
    <clipPath id="clip-path-24">
      <path id="Path_33607" data-name="Path 33607" d="M144.274,1369.6a6.253,6.253,0,0,0-.369,3.023c0,.012.006.024.009.036a21.414,21.414,0,0,0,4-.087.355.355,0,0,0-.009-.092c-.459-1.818-2.734-2.95-2.734-2.95Z" transform="translate(-143.848 -1369.528)" fill="none"/>
    </clipPath>
    <linearGradient id="linear-gradient-8" x1="-3.8" y1="1.088" x2="-3.774" y2="1.088" xlink:href="#linear-gradient-6"/>
    <clipPath id="clip-path-26">
      <path id="Path_33609" data-name="Path 33609" d="M94.523,1107.678a16.223,16.223,0,0,0,3.572,3.176l.442.992,1.416-1.7a7.685,7.685,0,0,1-3.475-3.9,8.4,8.4,0,0,1-1.954,1.429" transform="translate(-94.523 -1106.249)" fill="#ffd0c9"/>
    </clipPath>
    <clipPath id="clip-path-27">
      <path id="Path_33610" data-name="Path 33610" d="M144.418,1358.031l.382,1.839a.3.3,0,0,0,.257.247,2.552,2.552,0,0,0,.592-.009.378.378,0,0,0,.3-.444l-.266-1.632Z" transform="translate(-144.418 -1358.031)" fill="#ffd0c9"/>
    </clipPath>
    <clipPath id="clip-path-29">
      <path id="Path_33612" data-name="Path 33612" d="M199.862,1374.655a5.38,5.38,0,0,0,1.777.254c1.54.043,3.366-.089,4.083-.149a.259.259,0,0,0-.022-.041,6.969,6.969,0,0,0-4.144-2.6l-1.166-.037a5.594,5.594,0,0,0-.529,2.574" transform="translate(-199.862 -1372.081)" fill="none"/>
    </clipPath>
    <linearGradient id="linear-gradient-9" x1="-3.774" y1="1.129" x2="-3.756" y2="1.129" xlink:href="#linear-gradient-6"/>
    <clipPath id="clip-path-30">
      <path id="Path_33613" data-name="Path 33613" d="M202.688,1353.842c.013.087.173,1.408.235,1.92a.253.253,0,0,0,.214.229,2.671,2.671,0,0,0,.8-.012.345.345,0,0,0,.261-.346v-2.074Z" transform="translate(-202.688 -1353.559)" fill="#ffd0c9"/>
    </clipPath>
    <clipPath id="clip-path-31">
      <path id="Path_33614" data-name="Path 33614" d="M128.544,1138.291a12.753,12.753,0,0,0-1.251,2.531c-.069,8.392,1.548,20.042,1.829,22a.382.382,0,0,0,.34.324,4.8,4.8,0,0,0,1.047,0,.285.285,0,0,0,.252-.3c-.271-6.02.577-17.623.577-17.623,1.289,2.115,3.552,15.143,3.947,17.455a.483.483,0,0,0,.46.4,6.076,6.076,0,0,0,1.3-.151.521.521,0,0,0,.413-.507,103.819,103.819,0,0,0-2.762-24.138Z" transform="translate(-127.291 -1138.291)" fill="#222"/>
    </clipPath>
    <clipPath id="clip-path-32">
      <path id="Path_33615" data-name="Path 33615" d="M91.123,935.6c-3.078.58-8.605,1.3-10.827,1.577a2.721,2.721,0,0,0-1.719.923c-1.746,2.021-5.578,7.553-1.068,13.127a8.406,8.406,0,0,0,1.954-1.429,6.889,6.889,0,0,1,.506-5.408,5.16,5.16,0,0,0,.134.518,32.074,32.074,0,0,1,1.515,9.241.289.289,0,0,0,.181.27c1.9.76,5.548.308,6.773.125a.412.412,0,0,0,.345-.468c-.6-4.358,2.486-11.527,3.3-13.322a1.191,1.191,0,0,1,.592-.592,12.723,12.723,0,0,0,7.511-8.281,4.46,4.46,0,0,0-2.581-1.551,9.6,9.6,0,0,1-6.618,5.271" transform="translate(-75.391 -930.331)" fill="#a0ccff"/>
    </clipPath>
    <clipPath id="clip-path-33">
      <path id="Path_33616" data-name="Path 33616" d="M279.071,884.555a17.2,17.2,0,0,1-1.74,5.066,4.46,4.46,0,0,1,2.581,1.551,14.157,14.157,0,0,0,.221-6.617Z" transform="translate(-277.331 -884.555)" fill="#ffd0c9"/>
    </clipPath>
    <clipPath id="clip-path-34">
      <path id="Path_33617" data-name="Path 33617" d="M285.723,852.938c-.526,1.091,1.092,3.186,1.092,3.186h.467l1-2.631a1.076,1.076,0,0,0,.026-.685l-.253-.855s-.048,0-.13,0c-.422,0-1.757.074-2.2.988" transform="translate(-285.618 -851.95)" fill="#ffd0c9"/>
    </clipPath>
    <clipPath id="clip-path-35">
      <path id="Path_33618" data-name="Path 33618" d="M146.391,953.478l-.366,3.735a4.672,4.672,0,0,0,3.629-.445l-1.074-3.394Z" transform="translate(-146.025 -953.373)" fill="#ffd0c9"/>
    </clipPath>
    <clipPath id="clip-path-36">
      <path id="Path_33619" data-name="Path 33619" d="M146.252,916.291l2.551,3.585,2.362-1.14s-2.084-4.092-2.134-4.139a.568.568,0,0,0-.4-.157c-.938,0-2.374,1.852-2.374,1.852" transform="translate(-146.252 -914.439)" fill="#ffd0c9"/>
    </clipPath>
    <clipPath id="clip-path-37">
      <path id="Path_33620" data-name="Path 33620" d="M136.691,899.317a.965.965,0,0,0-.539,1.105.365.365,0,0,1-.3.429.249.249,0,0,0-.194.153.391.391,0,0,1-.41.228,1.175,1.175,0,0,0-1.272.623.833.833,0,0,0,.319,1.182.377.377,0,0,1,.117.512.83.83,0,0,0,.313,1.263.378.378,0,0,0,.3.04c.268-.077.863-.2,1.186.123.347.346,1.364,1.727,1.725,2.221a.377.377,0,0,0,.356.151,10.443,10.443,0,0,0,2.262-.66.375.375,0,0,0,.218-.46,14.063,14.063,0,0,0-.806-1.912.376.376,0,0,0-.508-.167,3.326,3.326,0,0,0-.93,1.006.618.618,0,0,1-.991.007.371.371,0,0,1-.065-.08l-1.178-1.963a.377.377,0,0,1-.028-.331c.116-.3.4-.875.931-.942.716-.091,1.856-.635,1.629-1.406a1.749,1.749,0,0,0-1.5-1.3,1.311,1.311,0,0,0-.636.173" transform="translate(-133.853 -899.144)" fill="#222"/>
    </clipPath>
    <clipPath id="clip-path-38">
      <path id="Path_33621" data-name="Path 33621" d="M144.346,946.8c-.58.049-1.036.626-.318,1.276.894.808,1.351,0,1.351,0s-.437-1.278-1-1.278h-.031" transform="translate(-143.66 -946.802)" fill="none"/>
    </clipPath>
    <linearGradient id="linear-gradient-10" x1="-7.187" y1="23.181" x2="-7.136" y2="23.181" gradientUnits="objectBoundingBox">
      <stop offset="0" stop-color="#ff928e"/>
      <stop offset="1" stop-color="#feb3b1"/>
    </linearGradient>
    <clipPath id="clip-path-39">
      <path id="Path_33622" data-name="Path 33622" d="M110.718,1016.986l.2-.073a11.582,11.582,0,0,1-.473-4.547l-.211-.024a11.811,11.811,0,0,0,.484,4.644" transform="translate(-110.182 -1012.342)" fill="none"/>
    </clipPath>
    <linearGradient id="linear-gradient-11" x1="-2.783" y1="10.38" x2="-2.754" y2="10.38" xlink:href="#linear-gradient-5"/>
    <clipPath id="clip-path-40">
      <path id="Path_33623" data-name="Path 33623" d="M143.472,1178.906a.106.106,0,0,0,.041.144c.018.01,1.764,1,2,1.9a.106.106,0,0,0,.1.08.1.1,0,0,0,.027,0,.106.106,0,0,0,.076-.129c-.256-.987-2.024-1.988-2.1-2.03a.106.106,0,0,0-.144.041" transform="translate(-143.458 -1178.852)" fill="none"/>
    </clipPath>
    <linearGradient id="linear-gradient-12" x1="-5.136" y1="8.194" x2="-5.099" y2="8.194" xlink:href="#linear-gradient-6"/>
    <clipPath id="clip-path-41">
      <path id="Path_33624" data-name="Path 33624" d="M711.681,212.258,672.226,231a9.3,9.3,0,0,0-5.295,7.791c-3.7,57.207,32.979,78.05,45,83.315a9.318,9.318,0,0,0,7.478,0c12.024-5.265,48.7-26.109,45-83.315A9.3,9.3,0,0,0,759.122,231l-39.455-18.739a9.308,9.308,0,0,0-7.986,0" transform="translate(-666.67 -211.358)" fill="#223a7a"/>
    </clipPath>
    <clipPath id="clip-path-43">
      <path id="Path_33627" data-name="Path 33627" d="M792.254,301.4l-36.884,17.517a2.324,2.324,0,0,0-1.323,1.981c-1.091,21.34,3.838,39.145,14.661,52.945a65.432,65.432,0,0,0,23.559,18.79,2.326,2.326,0,0,0,1.963,0,65.433,65.433,0,0,0,23.559-18.79c10.822-13.8,15.751-31.606,14.661-52.945a2.324,2.324,0,0,0-1.323-1.981L794.245,301.4a2.32,2.32,0,0,0-1.99,0" transform="translate(-753.9 -301.172)" fill="#ebf2ff"/>
    </clipPath>
    <clipPath id="clip-path-44">
      <path id="Path_33628" data-name="Path 33628" d="M995.234,443.061l-7.516.913a11.4,11.4,0,0,0-10.019,11.31v14.649h3.676V455.285a7.725,7.725,0,0,1,6.786-7.661l7.516-.913a7.717,7.717,0,0,1,8.648,7.661V467.16H1008V454.371a11.394,11.394,0,0,0-12.768-11.31" transform="translate(-977.699 -442.978)" fill="#3a6bea"/>
    </clipPath>
    <clipPath id="clip-path-45">
      <path id="Path_33629" data-name="Path 33629" d="M982.769,640.666l-32.224,1.785a2.284,2.284,0,0,0-2.156,2.354l.774,23.743a2.284,2.284,0,0,0,2.282,2.209H982.9a2.283,2.283,0,0,0,2.283-2.284V642.946a2.283,2.283,0,0,0-2.281-2.284c-.043,0-.086,0-.129,0" transform="translate(-948.388 -640.662)" fill="#3a6bea"/>
    </clipPath>
    <clipPath id="clip-path-46">
      <path id="Path_33630" data-name="Path 33630" d="M1066.172,702a5.3,5.3,0,0,0,1.967,4.124,1.893,1.893,0,0,1,.615,2.091L1067,713.273a1.892,1.892,0,0,0,1.787,2.514H1075a1.892,1.892,0,0,0,1.787-2.514l-1.95-5.607a1.878,1.878,0,0,1,.427-1.936,5.309,5.309,0,0,0-3.57-9.034q-.105,0-.209,0a5.31,5.31,0,0,0-5.31,5.31" transform="translate(-1066.172 -696.692)" fill="#193b93"/>
    </clipPath>
    <clipPath id="clip-path-47">
      <path id="Path_33631" data-name="Path 33631" d="M1590.658,842.145l.619,9.388s3.02,5.376,6.045,3.781c1.349-.712,1.582-1.613,1.426-2.392a1.551,1.551,0,0,1,1.176-1.792c1.1-.269,2.139-1.045,1.848-3.092-.381-2.682-2.762-3.484-4.307-3.721a1.384,1.384,0,0,1-1.158-1.217c-.149-1.206-1.662-1.285-1.864-1.9-.251-.764-1.619-1.43-1.619-1.43Z" transform="translate(-1590.658 -839.771)" fill="#222"/>
    </clipPath>
    <clipPath id="clip-path-48">
      <path id="Path_33632" data-name="Path 33632" d="M1475.8,796.286c.722,7.428,7.806,16.494,7.806,16.494,1.152-.218,3.359-3.819,3.359-3.819-6.631-3.316-10.523-13.925-10.523-13.925Z" transform="translate(-1475.797 -795.036)" fill="#ffd0c9"/>
    </clipPath>
    <clipPath id="clip-path-49">
      <path id="Path_33633" data-name="Path 33633" d="M1723.073,1366.085a.55.55,0,0,0-.546.616l.2,1.609a.665.665,0,0,0,.583.582,10.29,10.29,0,0,0,2.153.034.569.569,0,0,0,.478-.738,5.859,5.859,0,0,0-1.079-2.1Z" transform="translate(-1722.523 -1366.085)" fill="none"/>
    </clipPath>
    <linearGradient id="linear-gradient-13" x1="-53.571" y1="1.335" x2="-53.54" y2="1.335" xlink:href="#linear-gradient-5"/>
    <clipPath id="clip-path-50">
      <path id="Path_33634" data-name="Path 33634" d="M1585.173,1203.128s1.009,10.218,1.188,14.305a3.2,3.2,0,0,1-.474,1.82l-1.754,2.849,4.458-2.631.089-.544-.73-1,.956-11.447a3.511,3.511,0,0,0-.4-1.942l-.922-1.732-2.11-1.446Z" transform="translate(-1584.133 -1201.356)" fill="#ffd0c9"/>
    </clipPath>
    <clipPath id="clip-path-51">
      <path id="Path_33635" data-name="Path 33635" d="M1581.949,1355.765c-.733.442-2.983,2.026-2.983,2.026a2.035,2.035,0,0,0-.578.016.376.376,0,0,0,.07.746h1.423a.857.857,0,0,0,.68-.333c.443-.576,1.362-1.7,1.8-1.73.591-.039.516,2.063.516,2.063h.332l.42-2.613a1.547,1.547,0,0,0-.812-1.617,2.187,2.187,0,0,1-.868,1.442" transform="translate(-1578.081 -1354.323)" fill="none"/>
    </clipPath>
    <linearGradient id="linear-gradient-14" x1="-30.107" y1="1.231" x2="-30.088" y2="1.231" xlink:href="#linear-gradient-5"/>
    <clipPath id="clip-path-52">
      <path id="Path_33636" data-name="Path 33636" d="M1651.424,1203.043s5.91,11.21,6.849,13.77a24.579,24.579,0,0,1,1.281,4.9c.02.316.413.619,1.5.619a1.039,1.039,0,0,0,.967-.441.631.631,0,0,0,.024-.612c-.342-.692-1.427-2.9-1.829-3.906-.48-1.2-1.511-6.623-2.077-8.51a10.007,10.007,0,0,0-3.67-5.818,2.718,2.718,0,0,0-1.653-.736,1.754,1.754,0,0,0-1.388.736" transform="translate(-1651.424 -1202.307)" fill="#ffd0c9"/>
    </clipPath>
    <clipPath id="clip-path-53">
      <path id="Path_33637" data-name="Path 33637" d="M1542.605,926.377c.294,1.421,2.978,8.511,2.978,8.511a5.9,5.9,0,0,0,5.3-.516c-1.525-6.46,2.337-10.113,2.337-10.113-2.437-2.339-6.877-3.4-6.877-3.4s-4.237,3.1-3.734,5.522" transform="translate(-1542.564 -920.855)" fill="#a0ccff"/>
    </clipPath>
    <clipPath id="clip-path-54">
      <path id="Path_33638" data-name="Path 33638" d="M1567.373,1043.5a10.624,10.624,0,0,0-.172,4.1c.384,1.977,2.794,14.68,2.794,14.68,3.8.769,9.636-.774,9.636-.774-2.418-4.294-2.962-13.458-3.582-15.327s-3.38-3.2-3.38-3.2a5.9,5.9,0,0,1-5.3.516" transform="translate(-1567.066 -1042.987)" fill="#a0ccff"/>
    </clipPath>
    <clipPath id="clip-path-55">
      <path id="Path_33639" data-name="Path 33639" d="M1581.5,877.546l-1.028.456a.694.694,0,0,0-.406.729l.532,3.861a.6.6,0,0,0,.063.21,3.305,3.305,0,0,0,2.208,1.1c.5.094.943.174.824-.317l-1.24-5.567a.693.693,0,0,0-.955-.471" transform="translate(-1580.058 -877.486)" fill="#ffd0c9"/>
    </clipPath>
    <clipPath id="clip-path-56">
      <path id="Path_33640" data-name="Path 33640" d="M1620.94,953.717a.488.488,0,0,0,.108.594c4.507,3.947,3.406,7.441,2.823,8.629a.408.408,0,0,1-.618.14.826.826,0,0,0-1.073.046l-1.071,2.265a.4.4,0,0,0,.023.384.293.293,0,0,0,.429.077,9.407,9.407,0,0,1,1.559-1.058,1.949,1.949,0,0,0,.854-.495c7.544-6.5-1.106-12.692-1.106-12.692-.887.294-1.611,1.5-1.928,2.11" transform="translate(-1620.884 -951.607)" fill="#ffd0c9"/>
    </clipPath>
    <clipPath id="clip-path-57">
      <path id="Path_33641" data-name="Path 33641" d="M1564.933,833.682a5.493,5.493,0,0,0-2.466,2.741c-1,2.121-.253,3.1.684,3.235a4.382,4.382,0,0,0,3.817-1.256c1.36-1.259.115-4.807-1.576-4.807a1.268,1.268,0,0,0-.458.088" transform="translate(-1561.993 -833.594)" fill="#ffd0c9"/>
    </clipPath>
    <clipPath id="clip-path-58">
      <path id="Path_33642" data-name="Path 33642" d="M1575.448,816.847a1.763,1.763,0,0,0-.647,2.542l.647-.453c2.751.037,1.644,3.14,1.644,3.14l.172.089s.6-.645.86-.111-.379,1.533-.379,1.533.484,1.211,1.657.143,1.053-2.562.348-4.795a2.978,2.978,0,0,0-4.3-2.089" transform="translate(-1574.496 -816.511)" fill="#222"/>
    </clipPath>
    <clipPath id="clip-path-59">
      <path id="Path_33643" data-name="Path 33643" d="M1600.741,860.99l.17.787c.53-.272,1.884-1.112,1.137-1.749a.546.546,0,0,0-.355-.15c-.562,0-.952,1.112-.952,1.112" transform="translate(-1600.741 -859.878)" fill="#ffd0c9"/>
    </clipPath>
    <clipPath id="clip-path-60">
      <path id="Path_33644" data-name="Path 33644" d="M1454.85,757.49l1.107,1.154a5.368,5.368,0,0,0-.647,1.278,1.551,1.551,0,0,0,.155,1.142c.194.35.46.806.71,1.162a1.533,1.533,0,0,0,1.151.679c-.059.189.628.476,1.033-.3a7.27,7.27,0,0,0,.018-2.257,29.526,29.526,0,0,0-3.46-3.618.543.543,0,0,0-.068.755" transform="translate(-1454.727 -756.735)" fill="#ffd0c9"/>
    </clipPath>
    <clipPath id="clip-path-61">
      <path id="Path_33645" data-name="Path 33645" d="M1467.482,779.575a.479.479,0,0,0-.269.293.654.654,0,0,0,.124.515,10.805,10.805,0,0,1,.513,2.017l.219-.039a11.307,11.307,0,0,0-.542-2.095.466.466,0,0,1-.1-.338.22.22,0,0,1,.093-.117l.927.786.307.824.209-.078-.327-.879-1.088-.922Z" transform="translate(-1467.198 -779.541)" fill="none"/>
    </clipPath>
    <linearGradient id="linear-gradient-15" x1="-90.671" y1="24.079" x2="-90.61" y2="24.079" gradientUnits="objectBoundingBox">
      <stop offset="0" stop-color="#a22b25"/>
      <stop offset="1" stop-color="#c0423c"/>
    </linearGradient>
    <clipPath id="clip-path-63">
      <path id="Path_33647" data-name="Path 33647" d="M1752.591,1341.035s-4.4,1.9-4.15,3.881c0,0,4.551-.873,5.365-2.173s.366-2.054.366-2.054Z" transform="translate(-1748.431 -1340.688)" fill="none"/>
    </clipPath>
    <linearGradient id="linear-gradient-16" x1="-26.473" y1="1.307" x2="-26.458" y2="1.307" xlink:href="#linear-gradient-6"/>
    <clipPath id="clip-path-64">
      <path id="Path_33648" data-name="Path 33648" d="M1778.648,1324.831l.433,1.563a.744.744,0,0,0,.723.543,1.663,1.663,0,0,0,.558-.085.639.639,0,0,0,.4-.679l-.224-1.932Z" transform="translate(-1778.648 -1324.241)" fill="none"/>
    </clipPath>
    <linearGradient id="linear-gradient-17" x1="-63.369" y1="3.177" x2="-63.333" y2="3.177" xlink:href="#linear-gradient-10"/>
    <clipPath id="clip-path-65">
      <path id="Path_33649" data-name="Path 33649" d="M1759.118,1192.165c-4.029,2.35.2,13.627.2,13.627a4.091,4.091,0,0,0,2.568-.584s-2.163-8.255,1.594-9.692a21.626,21.626,0,0,1,8.592-1.222l-.809-3.85-.023-.255s-.474-.022-1.249-.022c-2.43,0-7.823.215-10.878,2" transform="translate(-1757.379 -1190.168)" fill="#222"/>
    </clipPath>
    <clipPath id="clip-path-66">
      <path id="Path_33650" data-name="Path 33650" d="M1743.42,1360.427a3.605,3.605,0,0,0-1.63.877,2.955,2.955,0,0,0,2.522.935,7.641,7.641,0,0,0,3.981-1.666,1.1,1.1,0,0,0,.2-.827s-.588-.621-1-.637h-.008c-.442,0-3.143,1.117-4.057,1.318" transform="translate(-1741.79 -1359.109)" fill="none"/>
    </clipPath>
    <linearGradient id="linear-gradient-18" x1="-25.589" y1="1.032" x2="-25.574" y2="1.032" xlink:href="#linear-gradient-6"/>
    <clipPath id="clip-path-68">
      <path id="Path_33652" data-name="Path 33652" d="M1788.585,1348.1a.476.476,0,0,0,.184.648,1.888,1.888,0,0,0,.488.171.733.733,0,0,0,.682-.205,6.572,6.572,0,0,0,1.078-1.295l-1.49-1.034Z" transform="translate(-1788.525 -1346.382)" fill="none"/>
    </clipPath>
    <linearGradient id="linear-gradient-19" x1="-64.162" y1="2.068" x2="-64.126" y2="2.068" xlink:href="#linear-gradient-10"/>
    <clipPath id="clip-path-69">
      <path id="Path_33653" data-name="Path 33653" d="M1801.078,1184.744l.206,1.273c.113.7.063,1.382-.581,1.677-2.248,1.033-3.83,3.42-4.912,5.078-1.25,1.914-4.245,9.787-4.245,9.787a4.136,4.136,0,0,0,1.862,1.177c2.523-1.466,5.3-6.571,6.84-9.172s6.026-3.271,8.07-4.3,1.337-6.039,1.337-6.039Z" transform="translate(-1791.547 -1184.23)" fill="#222"/>
    </clipPath>
    <clipPath id="clip-path-70">
      <path id="Path_33654" data-name="Path 33654" d="M1779.172,1073.074a4.106,4.106,0,0,1-.6,2.415,4.664,4.664,0,0,0,2.564.376c3.952-.49,6.57-5.1,6.57-5.1l-4.393-5.136c.011.2-1.271,8.259-4.136,7.441" transform="translate(-1778.567 -1065.633)" fill="#a0ccff"/>
    </clipPath>
    <clipPath id="clip-path-71">
      <path id="Path_33655" data-name="Path 33655" d="M1715.36,1107.869c-1.249.513-2.58,2.73-2.58,2.73a.822.822,0,0,0,1.034.229c.559-.352,1.993-1.273,1.993-1.273a7.724,7.724,0,0,0-.482,1.226c0,.193.626.162.66-.36.017-.265.29-.461.554-.589a.536.536,0,0,1,.707.24,6.387,6.387,0,0,0,2.814,2.85,4.1,4.1,0,0,0,.6-2.414,7.5,7.5,0,0,1-3-2.128,2.533,2.533,0,0,0-1.587-.655,1.878,1.878,0,0,0-.721.144" transform="translate(-1712.78 -1107.725)" fill="#ffd0c9"/>
    </clipPath>
    <clipPath id="clip-path-72">
      <path id="Path_33656" data-name="Path 33656" d="M1821.339,1031.958a3.026,3.026,0,0,0-.509,2.582c.449,1.369,5.969,8.775,6.184,12.251a9.887,9.887,0,0,0,8.673.019s1.643-9.181-1.2-16.977a6.441,6.441,0,0,0-3.417-.724c-2.13,0-5.316.592-9.732,2.848" transform="translate(-1820.71 -1029.11)" fill="#a0ccff"/>
    </clipPath>
    <clipPath id="clip-path-73">
      <path id="Path_33657" data-name="Path 33657" d="M1845.359,1005.706l.789,3.328a1.307,1.307,0,0,0,.891.948,2.421,2.421,0,0,0,2.786-.776.848.848,0,0,0,.088-.914l-1.521-2.981Z" transform="translate(-1845.359 -1005.311)" fill="#ffd0c9"/>
    </clipPath>
    <clipPath id="clip-path-74">
      <path id="Path_33658" data-name="Path 33658" d="M1930.042,1040.74s4.789,3.513,4.529,5.325a5.953,5.953,0,0,1,3.178,3.15,3.723,3.723,0,0,0,1.188-1.714c1.922-5.326-7.217-11.847-7.217-11.847Z" transform="translate(-1930.042 -1035.654)" fill="#a0ccff"/>
    </clipPath>
    <clipPath id="clip-path-75">
      <path id="Path_33659" data-name="Path 33659" d="M1884.5,1130.09c-1.124,1.649-6.541.136-6.541.136-3.538-.37-4.061,3.809-4.061,3.809.636.342,1.143-.251,1.583-.845.356-.481.67-.962.972-.945a6.505,6.505,0,0,0,1.773-.356.95.95,0,0,1,.714.06c1.348.68,6.307,2.948,8.879.925a5.954,5.954,0,0,0-3.178-3.15.859.859,0,0,1-.14.367" transform="translate(-1873.893 -1129.723)" fill="#ffd0c9"/>
    </clipPath>
    <clipPath id="clip-path-76">
      <path id="Path_33660" data-name="Path 33660" d="M1827.1,967.224c-.246,1.3-.641,2.118.842,2.582a3.255,3.255,0,0,0,3.726-1.34s1.351-1.872,1.216-2.729-4.12-2.174-4.12-2.174a16.175,16.175,0,0,0-1.664,3.661" transform="translate(-1826.861 -963.563)" fill="#ffd0c9"/>
    </clipPath>
    <clipPath id="clip-path-77">
      <path id="Path_33661" data-name="Path 33661" d="M1833.671,938.372a1.831,1.831,0,0,0-1.031,2.4c.465,1.055,3.143,1.978,3.8,2.355s-.347,1.894-.347,1.894l.192.025.409.054a.1.1,0,0,1,.089.123l-.222,1.138a.1.1,0,0,0,.064.117,2.124,2.124,0,0,0,1.51-.145c.845-.318.582-.675.4-.835a.1.1,0,0,1,.017-.166c1.249-.774,1.607-1.868,1.15-2.368-.263-.288-.489-.277-.639-.211a.1.1,0,0,1-.148-.105c.14-1.3-1-2.219-2.826-2.812-1.288-.418-1.717-.957-1.861-1.273a.1.1,0,0,0-.188,0,.1.1,0,0,1-.193-.005l-.047-.128a.1.1,0,0,0-.1-.069.1.1,0,0,0-.027,0" transform="translate(-1832.496 -938.368)" fill="#222"/>
    </clipPath>
    <clipPath id="clip-path-78">
      <path id="Path_33662" data-name="Path 33662" d="M1866.017,991.9l.092.724c.584.016,1.849-1.183,1.191-1.725a.452.452,0,0,0-.291-.116c-.54,0-.992,1.116-.992,1.116" transform="translate(-1866.017 -990.78)" fill="#ffd0c9"/>
    </clipPath>
    <clipPath id="clip-path-79">
      <path id="Path_33663" data-name="Path 33663" d="M1728.354,1155.643a.566.566,0,0,0,.566.567l12.656.014h.029a.566.566,0,0,0-.028-1.132l-12.656-.014h-.01a.564.564,0,0,0-.557.566" transform="translate(-1728.354 -1155.077)" fill="#444"/>
    </clipPath>
    <clipPath id="clip-path-80">
      <path id="Path_33664" data-name="Path 33664" d="M1623.895,1061.6a.842.842,0,0,0-.783,1.151l3.778,9.561a1.221,1.221,0,0,0,1.135.772h13.1l-4.873-10.332a2.009,2.009,0,0,0-1.817-1.152Z" transform="translate(-1623.052 -1061.605)" fill="#444"/>
    </clipPath>
    <clipPath id="clip-path-81">
      <path id="Path_33665" data-name="Path 33665" d="M1683.035,1099.959c-.437.141-.605.83-.377,1.539s.767,1.171,1.2,1.031.605-.83.377-1.54c-.2-.624-.641-1.056-1.042-1.056a.524.524,0,0,0-.162.025" transform="translate(-1682.556 -1099.934)" fill="#fff"/>
    </clipPath>
  </defs>
  <g id="Group_95974" data-name="Group 95974" clip-path="url(#clip-path)">
    <g id="Group_95810" data-name="Group 95810" transform="translate(13.972 5.421)">
      <g id="Group_95809" data-name="Group 95809" clip-path="url(#clip-path-2)">
        <rect id="Rectangle_63923" data-name="Rectangle 63923" width="226.619" height="149.33" transform="translate(-1.282 0)" fill="#eaf2fd"/>
      </g>
    </g>
    <g id="Group_95815" data-name="Group 95815" transform="translate(0 0)">
      <g id="Group_95814" data-name="Group 95814" clip-path="url(#clip-path)">
        <path id="Path_33570" data-name="Path 33570" d="M1502.087,68.062c3.283,9.827,20.053,67.794-31.515,93.3,0,0-20.864-35.32,30.025-93.6a.877.877,0,0,1,1.491.3" transform="translate(-1304.054 -59.995)" fill="#d4e5fa"/>
        <path id="Path_33571" data-name="Path 33571" d="M1622.084,160.666c-.258,3.3-.583,6.6-.937,9.888s-.749,6.578-1.181,9.86c-.864,6.564-1.874,13.111-3.085,19.623s-2.623,12.991-4.383,19.385q-1.3,4.8-2.962,9.5a83.729,83.729,0,0,1-3.83,9.207.445.445,0,1,1-.8-.4v0a82.909,82.909,0,0,0,3.847-9.086q1.678-4.65,3.006-9.427c1.793-6.355,3.238-12.81,4.494-19.3s2.3-13.021,3.207-19.572q.679-4.913,1.243-9.841c.375-3.285.721-6.575,1-9.868v0a.189.189,0,0,1,.376.031" transform="translate(-1427.248 -142.704)" fill="#60a8ff"/>
        <path id="Path_33572" data-name="Path 33572" d="M1506.607,165.013a.985.985,0,0,0-1.862-.432c-4.475,8.832-16.936,31.622-31.258,42.189-23.32,17.206-42.824,48.781-34.048,68.874,0,0,69.04.936,67.168-110.631" transform="translate(-1278.226 -145.889)" fill="#aad0ff"/>
        <path id="Path_33573" data-name="Path 33573" d="M1571.145,288.827c-.083.287-.179.533-.27.795l-.285.771-.586,1.534c-.4,1.02-.8,2.036-1.214,3.05q-1.239,3.04-2.547,6.051c-1.746,4.014-3.6,7.983-5.508,11.921s-3.919,7.831-6.008,11.679l-.781,1.444-.8,1.434c-.537.954-1.058,1.917-1.611,2.862l-1.641,2.845-1.684,2.82a213.1,213.1,0,0,1-14.875,21.65c-.333.435-.68.859-1.029,1.281l-1.044,1.269-1.044,1.269c-.353.419-.717.828-1.075,1.242-.724.823-1.428,1.662-2.167,2.47l-2.232,2.413a115.952,115.952,0,0,1-9.583,8.983.111.111,0,0,1-.144-.17h0a124.675,124.675,0,0,0,9.391-9.128l2.2-2.427c.728-.813,1.422-1.657,2.134-2.484.352-.417.711-.828,1.059-1.249l1.027-1.276,1.027-1.276c.344-.424.685-.85,1.012-1.287l1.993-2.6c.659-.87,1.294-1.759,1.942-2.637.321-.441.648-.879.964-1.323l.939-1.342.939-1.342c.315-.446.626-.894.927-1.35,2.464-3.607,4.783-7.31,7.067-11.034,4.538-7.467,8.691-15.165,12.6-22.984q2.921-5.869,5.614-11.849,1.351-2.987,2.64-6c.426-1.007.849-2.014,1.261-3.026l.609-1.521.3-.763c.093-.253.2-.517.272-.753l.007-.023a.111.111,0,0,1,.212.064" transform="translate(-1347.312 -256.736)" fill="#60a8ff"/>
        <path id="Path_33574" data-name="Path 33574" d="M1511.1,665.445s.671-14.178,15.332-28.16c13.6-12.974,46.99-42.937,54.947-59.8a.763.763,0,0,1,1.455.332,93.6,93.6,0,0,1-18.134,52.7c-20.49,27.947-53.6,34.935-53.6,34.935" transform="translate(-1343.861 -513.174)" fill="#d4e5fa"/>
        <path id="Path_33575" data-name="Path 33575" d="M1607.34,722.989a32.643,32.643,0,0,1-1.489,5.683c-.079.232-.154.466-.237.7l-.263.687-.527,1.375-.584,1.352c-.2.449-.379.907-.605,1.342a69.457,69.457,0,0,1-5.936,10.167c-.534.827-1.152,1.591-1.74,2.378s-1.167,1.583-1.815,2.322l-1.893,2.26c-.307.384-.653.733-.986,1.1l-1,1.079-1,1.079-.5.538-.528.514-2.112,2.056c-.354.34-.7.692-1.061,1.021l-1.087.989-2.174,1.977-2.2,1.952c-.734.648-1.462,1.3-2.2,1.942q-2.216,1.929-4.463,3.822c-1.491,1.27-3,2.515-4.507,3.767l-4.552,3.709c-3.036,2.469-6.075,4.931-9.027,7.488-.747.63-1.461,1.294-2.186,1.947-.367.322-.711.667-1.062,1.005s-.706.673-1.046,1.022c-.665.711-1.358,1.4-1.972,2.155l-.475.555c-.078.094-.161.183-.234.28l-.218.293-.872,1.172,0,0a.111.111,0,0,1-.183-.128,34.647,34.647,0,0,1,3.674-4.6c.335-.36.686-.7,1.029-1.054s.685-.7,1.045-1.037c.713-.673,1.416-1.359,2.151-2.009,2.909-2.631,5.932-5.122,8.929-7.638s6-5.019,8.975-7.559,5.91-5.119,8.824-7.725l2.167-1.974,1.084-.987c.362-.329.7-.673,1.058-1.009l2.105-2.027.526-.507.5-.53,1-1.064a86.205,86.205,0,0,0,7.473-8.973,68.907,68.907,0,0,0,6.1-9.958c.234-.428.421-.879.635-1.317l.625-1.323.569-1.348.285-.674c.09-.227.172-.456.259-.684.168-.458.35-.912.506-1.374l.458-1.391a28.815,28.815,0,0,0,.738-2.835.014.014,0,0,1,.016-.012.014.014,0,0,1,.012.016" transform="translate(-1375.41 -642.959)" fill="#60a8ff"/>
        <path id="Path_33576" data-name="Path 33576" d="M121.382,327.686s-14.212-60.006-43.665-92.745a3.738,3.738,0,0,0-6.39,1.5c-5.228,19.092-15.261,77,50.055,91.242" transform="translate(-59.993 -207.831)" fill="#d4e5fa"/>
        <path id="Path_33577" data-name="Path 33577" d="M192.5,480.051a.163.163,0,0,1-.212.247c-6.06-4.507-29.489-26.654-38.137-70.788a.114.114,0,0,1,.221-.057c2.941,10.23,14.966,47.953,38.128,70.6" transform="translate(-137.089 -364.066)" fill="#60a8ff"/>
        <path id="Path_33578" data-name="Path 33578" d="M329.45,73.871s5.665-43.182-5.571-72.182a2.64,2.64,0,0,0-4.6-.611C311.045,12.372,289.9,48.09,329.45,73.871" transform="translate(-272.331 0.005)" fill="#aad0ff"/>
        <path id="Path_33579" data-name="Path 33579" d="M415.361,178.821a.115.115,0,0,1-.2.11c-2.871-4.5-12.785-24.993-7.428-56.3a.081.081,0,0,1,.16.018c-.624,7.492-2.145,35.413,7.47,56.172" transform="translate(-361.218 -108.999)" fill="#60a8ff"/>
        <path id="Path_33580" data-name="Path 33580" d="M.151,829.21a.312.312,0,0,1,.195-.576,59.877,59.877,0,0,1,38.894,21.555c13.183,16.22,19.776,29.759,22.025,34.9a1.45,1.45,0,0,1-1.471,2.025c-6.539-.651-24.752-3.432-32.371-14.549-9.1-13.285-13.755-35-27.272-43.35" transform="translate(0 -736.925)" fill="#bdd0fb"/>
        <g id="Group_95813" data-name="Group 95813" transform="translate(15.663 101.459)" opacity="0.5">
          <g id="Group_95812" data-name="Group 95812">
            <g id="Group_95811" data-name="Group 95811" clip-path="url(#clip-path-4)">
              <path id="Path_33581" data-name="Path 33581" d="M141.53,916.745s17.2,6.49,44.224,46.861c0,0-29.311-39.134-44.224-46.861" transform="translate(-141.53 -916.745)" fill="#fff"/>
            </g>
          </g>
        </g>
      </g>
    </g>
    <g id="Group_95817" data-name="Group 95817" transform="translate(38.805 47.545)">
      <g id="Group_95816" data-name="Group 95816" clip-path="url(#clip-path-5)">
        <rect id="Rectangle_63926" data-name="Rectangle 63926" width="149.505" height="190.604" transform="translate(-30.584 91.754) rotate(-71.565)" fill="#444"/>
      </g>
    </g>
    <g id="Group_95819" data-name="Group 95819" transform="translate(42.836 50.999)">
      <g id="Group_95818" data-name="Group 95818" clip-path="url(#clip-path-6)">
        <rect id="Rectangle_63927" data-name="Rectangle 63927" width="98.721" height="161.917" transform="matrix(0.02, -1, 1, 0.02, -1.905, 95.51)" fill="#eee"/>
      </g>
    </g>
    <g id="Group_95821" data-name="Group 95821" transform="translate(0 0)">
      <g id="Group_95820" data-name="Group 95820" clip-path="url(#clip-path)">
        <path id="Path_33584" data-name="Path 33584" d="M410.405,887.554a.223.223,0,0,1-.223-.219l-.1-6.667a.223.223,0,0,1,.219-.226h0a.223.223,0,0,1,.223.219l.1,6.667a.223.223,0,0,1-.219.226Z" transform="translate(-364.7 -783.001)" fill="#fff"/>
        <path id="Path_33585" data-name="Path 33585" d="M406.011,533.754a.223.223,0,0,1-.223-.219L405.413,508a5.406,5.406,0,0,1,1.562-4.053,7.427,7.427,0,0,1,4.923-1.7l47.135-1.265a.219.219,0,0,1,.229.217.222.222,0,0,1-.217.229L411.9,502.694a6.963,6.963,0,0,0-4.614,1.574A4.975,4.975,0,0,0,405.858,508l.375,25.53a.223.223,0,0,1-.219.226Z" transform="translate(-360.545 -445.538)" fill="#fff"/>
      </g>
    </g>
    <g id="Group_95823" data-name="Group 95823" transform="translate(50.424 57.176)">
      <g id="Group_95822" data-name="Group 95822" clip-path="url(#clip-path-8)">
        <rect id="Rectangle_63929" data-name="Rectangle 63929" width="104.328" height="157.848" transform="matrix(0.133, -0.991, 0.991, 0.133, -11.652, 83.884)" fill="#fff"/>
      </g>
    </g>
    <g id="Group_95825" data-name="Group 95825" transform="translate(30.527 146.159)">
      <g id="Group_95824" data-name="Group 95824" clip-path="url(#clip-path-9)">
        <rect id="Rectangle_63930" data-name="Rectangle 63930" width="185.782" height="7.957" transform="translate(0 0)" fill="#444"/>
      </g>
    </g>
    <g id="Group_95839" data-name="Group 95839" transform="translate(0 0)">
      <g id="Group_95838" data-name="Group 95838" clip-path="url(#clip-path)">
        <g id="Group_95828" data-name="Group 95828" transform="translate(56.898 84.473)">
          <g id="Group_95827" data-name="Group 95827">
            <g id="Group_95826" data-name="Group 95826" clip-path="url(#clip-path-11)">
              <rect id="Rectangle_63932" data-name="Rectangle 63932" width="6.885" height="29.794" transform="translate(0 24.137)" fill="#aad0ff"/>
              <rect id="Rectangle_63933" data-name="Rectangle 63933" width="6.885" height="19.554" transform="translate(11.505 34.377)" fill="#aad0ff"/>
              <rect id="Rectangle_63934" data-name="Rectangle 63934" width="6.885" height="44.862" transform="translate(23.009 9.07)" fill="#aad0ff"/>
              <rect id="Rectangle_63935" data-name="Rectangle 63935" width="6.885" height="10.777" transform="translate(34.514 43.154)" fill="#aad0ff"/>
              <rect id="Rectangle_63936" data-name="Rectangle 63936" width="6.885" height="38.864" transform="translate(46.019 15.067)" fill="#aad0ff"/>
              <rect id="Rectangle_63937" data-name="Rectangle 63937" width="6.885" height="32.135" transform="translate(57.523 21.796)" fill="#aad0ff"/>
              <rect id="Rectangle_63938" data-name="Rectangle 63938" width="6.885" height="24.821" transform="translate(69.028 29.11)" fill="#aad0ff"/>
              <rect id="Rectangle_63939" data-name="Rectangle 63939" width="6.885" height="53.931" transform="translate(80.532 0)" fill="#aad0ff"/>
              <rect id="Rectangle_63940" data-name="Rectangle 63940" width="6.885" height="48.226" transform="translate(92.037 5.705)" fill="#aad0ff"/>
              <rect id="Rectangle_63941" data-name="Rectangle 63941" width="6.885" height="39.595" transform="translate(103.542 14.336)" fill="#aad0ff"/>
              <rect id="Rectangle_63942" data-name="Rectangle 63942" width="6.885" height="9.777" transform="translate(115.046 44.154)" fill="#aad0ff"/>
              <rect id="Rectangle_63943" data-name="Rectangle 63943" width="6.885" height="28.77" transform="translate(126.551 25.161)" fill="#aad0ff"/>
            </g>
          </g>
        </g>
        <path id="Path_33587" data-name="Path 33587" d="M66.772,629.744l72.467-1.225a5.078,5.078,0,0,1,5.086,5.435l-2.494,42.9a4.419,4.419,0,0,1-4.322,4.209l-69.658.689a3.213,3.213,0,0,1-3.208-3.13l-1.667-44.769a3.915,3.915,0,0,1,3.8-4.1" transform="translate(-56.004 -558.959)" fill="#5479f7"/>
        <path id="Path_33588" data-name="Path 33588" d="M73.909,644a3.762,3.762,0,0,1,3.7-3.9l70.575-1.165a4.881,4.881,0,0,1,4.953,5.171L150.7,684.913a4.258,4.258,0,0,1-4.209,4l-67.84.655a3.1,3.1,0,0,1-3.124-2.978Z" transform="translate(-65.727 -568.218)" fill="#91b3fa"/>
        <path id="Path_33589" data-name="Path 33589" d="M87.431,656.972a3.582,3.582,0,0,1,3.52-3.718l67.2-1.109a4.648,4.648,0,0,1,4.717,4.924l-2.313,38.861a4.054,4.054,0,0,1-4.008,3.813l-64.6.624a2.948,2.948,0,0,1-2.975-2.836Z" transform="translate(-77.752 -579.969)" fill="#bdd0fb"/>
        <path id="Path_33590" data-name="Path 33590" d="M147.153,638.627,76.282,639.8a3.778,3.778,0,0,0-3.713,3.921l.114,3h79.27l.173-2.9a4.9,4.9,0,0,0-4.974-5.192" transform="translate(-64.536 -567.947)" fill="#5479f7"/>
        <g id="Group_95837" data-name="Group 95837" transform="translate(12.7 72.663)" opacity="0.85">
          <g id="Group_95836" data-name="Group 95836">
            <g id="Group_95835" data-name="Group 95835" clip-path="url(#clip-path-12)">
              <g id="Group_95830" data-name="Group 95830">
                <g id="Group_95829" data-name="Group 95829" clip-path="url(#clip-path-13)">
                  <rect id="Rectangle_63945" data-name="Rectangle 63945" width="1.275" height="1.275" transform="translate(0)" fill="url(#linear-gradient)"/>
                </g>
              </g>
              <g id="Group_95832" data-name="Group 95832" transform="translate(0 1.868)">
                <g id="Group_95831" data-name="Group 95831" clip-path="url(#clip-path-14)">
                  <rect id="Rectangle_63946" data-name="Rectangle 63946" width="1.275" height="1.275" transform="translate(0)" fill="url(#linear-gradient-2)"/>
                </g>
              </g>
              <g id="Group_95834" data-name="Group 95834" transform="translate(0 3.736)">
                <g id="Group_95833" data-name="Group 95833" clip-path="url(#clip-path-15)">
                  <rect id="Rectangle_63947" data-name="Rectangle 63947" width="1.275" height="1.275" transform="translate(0 0)" fill="url(#linear-gradient-3)"/>
                </g>
              </g>
            </g>
          </g>
        </g>
      </g>
    </g>
    <g id="Group_95841" data-name="Group 95841" transform="translate(15.146 84.65)">
      <g id="Group_95840" data-name="Group 95840" clip-path="url(#clip-path-16)">
        <rect id="Rectangle_63950" data-name="Rectangle 63950" width="20.204" height="20.204" fill="url(#linear-gradient-4)"/>
      </g>
    </g>
    <g id="Group_95843" data-name="Group 95843" transform="translate(0 0)">
      <g id="Group_95842" data-name="Group 95842" clip-path="url(#clip-path)">
        <path id="Path_33595" data-name="Path 33595" d="M212.468,838.253a2.227,2.227,0,1,1-2.227-2.227,2.227,2.227,0,0,1,2.227,2.227" transform="translate(-184.993 -743.501)" fill="#7d97f4"/>
        <path id="Path_33596" data-name="Path 33596" d="M168.593,794.447a6.489,6.489,0,1,1-5.366-10.137q.165,0,.327.008v-1.645c-.109,0-.218-.007-.327-.007a8.133,8.133,0,1,0,6.7,12.745Z" transform="translate(-137.929 -696.046)" fill="#91b3fa"/>
        <path id="Path_33597" data-name="Path 33597" d="M365.367,774.757a1.48,1.48,0,1,1-1.471-1.49,1.48,1.48,0,0,1,1.471,1.49" transform="translate(-322.298 -687.687)" fill="#7d97f4"/>
      </g>
    </g>
    <g id="Group_95845" data-name="Group 95845" transform="translate(40.27 86.815)">
      <g id="Group_95844" data-name="Group 95844" clip-path="url(#clip-path-18)">
        <rect id="Rectangle_63952" data-name="Rectangle 63952" width="0.02" height="0.166" transform="translate(0)" fill="url(#linear-gradient-5)"/>
      </g>
    </g>
    <g id="Group_95847" data-name="Group 95847" transform="translate(0 0)">
      <g id="Group_95846" data-name="Group 95846" clip-path="url(#clip-path)">
        <path id="Path_33599" data-name="Path 33599" d="M365.367,855.839a1.48,1.48,0,1,1-1.471-1.49,1.48,1.48,0,0,1,1.471,1.49" transform="translate(-322.298 -759.795)" fill="#7d97f4"/>
      </g>
    </g>
    <g id="Group_95849" data-name="Group 95849" transform="translate(40.27 95.788)">
      <g id="Group_95848" data-name="Group 95848" clip-path="url(#clip-path-20)">
        <rect id="Rectangle_63954" data-name="Rectangle 63954" width="0.02" height="0.166" transform="translate(0)" fill="url(#linear-gradient-6)"/>
      </g>
    </g>
    <g id="Group_95851" data-name="Group 95851" transform="translate(0 0)">
      <g id="Group_95850" data-name="Group 95850" clip-path="url(#clip-path)">
        <path id="Path_33601" data-name="Path 33601" d="M365.367,936.922a1.48,1.48,0,1,1-1.471-1.49,1.48,1.48,0,0,1,1.471,1.49" transform="translate(-322.298 -831.905)" fill="#7d97f4"/>
      </g>
    </g>
    <g id="Group_95853" data-name="Group 95853" transform="translate(40.27 104.762)">
      <g id="Group_95852" data-name="Group 95852" clip-path="url(#clip-path-22)">
        <rect id="Rectangle_63956" data-name="Rectangle 63956" width="0.02" height="0.166" transform="translate(0)" fill="url(#linear-gradient-7)"/>
      </g>
    </g>
    <g id="Group_95855" data-name="Group 95855" transform="translate(0 0)">
      <g id="Group_95854" data-name="Group 95854" clip-path="url(#clip-path)">
        <path id="Path_33603" data-name="Path 33603" d="M409.728,775.452l.007.252a1.141,1.141,0,0,0,.966,1.227l28.8.06a1.321,1.321,0,0,0,.023-2.543l-28.809-.312c-.557-.015-1.009.587-.989,1.317" transform="translate(-364.382 -688.46)" fill="#91b3fa"/>
        <path id="Path_33604" data-name="Path 33604" d="M409.728,856.139l.007.252a1.141,1.141,0,0,0,.966,1.227l28.8.06a1.321,1.321,0,0,0,.023-2.543l-28.809-.312c-.557-.015-1.009.587-.989,1.317" transform="translate(-364.382 -760.217)" fill="#91b3fa"/>
        <path id="Path_33605" data-name="Path 33605" d="M409.728,936.825l.007.252a1.141,1.141,0,0,0,.966,1.227l28.8.06a1.321,1.321,0,0,0,.023-2.543l-28.809-.312c-.557-.015-1.009.587-.989,1.317" transform="translate(-364.382 -831.973)" fill="#91b3fa"/>
        <path id="Path_33606" data-name="Path 33606" d="M194.4,1012.981a1.786,1.786,0,0,0-1.807-1.974l-61.831,1.1a1.786,1.786,0,0,0-1.732,2.068l.273,1.706a1.786,1.786,0,0,0,1.771,1.5l61.286-.241a1.786,1.786,0,0,0,1.769-1.6Z" transform="translate(-114.725 -899.115)" fill="#91b3fa"/>
      </g>
    </g>
    <g id="Group_95857" data-name="Group 95857" transform="translate(15.92 151.569)">
      <g id="Group_95856" data-name="Group 95856" clip-path="url(#clip-path-24)">
        <rect id="Rectangle_63958" data-name="Rectangle 63958" width="4.164" height="3.239" transform="translate(-0.093)" fill="url(#linear-gradient-8)"/>
      </g>
    </g>
    <g id="Group_95859" data-name="Group 95859" transform="translate(0 0)">
      <g id="Group_95858" data-name="Group 95858" clip-path="url(#clip-path)">
        <path id="Path_33608" data-name="Path 33608" d="M144.447,1397.1a.391.391,0,0,0,.286.289,12.369,12.369,0,0,0,3.446-.049.328.328,0,0,0,.272-.327,21.38,21.38,0,0,1-4,.087" transform="translate(-128.461 -1242.405)" fill="#bdd0fb"/>
      </g>
    </g>
    <g id="Group_95861" data-name="Group 95861" transform="translate(10.461 122.431)">
      <g id="Group_95860" data-name="Group 95860" clip-path="url(#clip-path-26)">
        <rect id="Rectangle_63960" data-name="Rectangle 63960" width="5.429" height="5.596" fill="#ffd0c9"/>
      </g>
    </g>
    <g id="Group_95863" data-name="Group 95863" transform="translate(15.983 150.296)">
      <g id="Group_95862" data-name="Group 95862" clip-path="url(#clip-path-27)">
        <rect id="Rectangle_63961" data-name="Rectangle 63961" width="2.273" height="1.795" transform="translate(-0.239 2.082) rotate(-83.463)" fill="#ffd0c9"/>
      </g>
    </g>
    <g id="Group_95865" data-name="Group 95865" transform="translate(0 0)">
      <g id="Group_95864" data-name="Group 95864" clip-path="url(#clip-path)">
        <path id="Path_33611" data-name="Path 33611" d="M201.637,1395.594a5.388,5.388,0,0,1-1.778-.254c0,.1,0,.2,0,.3a.2.2,0,0,0,.188.2l5.469-.035a.25.25,0,0,0,.2-.364c-.717.059-2.543.192-4.083.149" transform="translate(-177.74 -1240.914)" fill="#bdd0fb"/>
      </g>
    </g>
    <g id="Group_95867" data-name="Group 95867" transform="translate(22.119 151.851)">
      <g id="Group_95866" data-name="Group 95866" clip-path="url(#clip-path-29)">
        <rect id="Rectangle_63963" data-name="Rectangle 63963" width="5.86" height="2.871" fill="url(#linear-gradient-9)"/>
      </g>
    </g>
    <g id="Group_95869" data-name="Group 95869" transform="translate(22.432 149.801)">
      <g id="Group_95868" data-name="Group 95868" clip-path="url(#clip-path-30)">
        <rect id="Rectangle_63964" data-name="Rectangle 63964" width="2.633" height="1.783" transform="translate(-0.28 2.445) rotate(-83.463)" fill="#ffd0c9"/>
      </g>
    </g>
    <g id="Group_95871" data-name="Group 95871" transform="translate(14.088 125.977)">
      <g id="Group_95870" data-name="Group 95870" clip-path="url(#clip-path-31)">
        <rect id="Rectangle_63965" data-name="Rectangle 63965" width="26.505" height="22.138" transform="matrix(0.542, -0.841, 0.841, 0.542, -11.406, 17.595)" fill="#222"/>
      </g>
    </g>
    <g id="Group_95873" data-name="Group 95873" transform="translate(8.344 102.962)">
      <g id="Group_95872" data-name="Group 95872" clip-path="url(#clip-path-32)">
        <rect id="Rectangle_63966" data-name="Rectangle 63966" width="33.943" height="35.167" transform="translate(-11.769 20.577) rotate(-65.501)" fill="#a0ccff"/>
      </g>
    </g>
    <g id="Group_95875" data-name="Group 95875" transform="translate(30.693 97.896)">
      <g id="Group_95874" data-name="Group 95874" clip-path="url(#clip-path-33)">
        <rect id="Rectangle_63967" data-name="Rectangle 63967" width="7.467" height="6.745" transform="translate(-3.122 4.405) rotate(-54.672)" fill="#ffd0c9"/>
      </g>
    </g>
    <g id="Group_95877" data-name="Group 95877" transform="translate(31.61 94.287)">
      <g id="Group_95876" data-name="Group 95876" clip-path="url(#clip-path-34)">
        <rect id="Rectangle_63968" data-name="Rectangle 63968" width="5.239" height="5.001" transform="matrix(0.578, -0.816, 0.816, 0.578, -2.39, 2.778)" fill="#ffd0c9"/>
      </g>
    </g>
    <g id="Group_95879" data-name="Group 95879" transform="translate(16.161 105.512)">
      <g id="Group_95878" data-name="Group 95878" clip-path="url(#clip-path-35)">
        <rect id="Rectangle_63969" data-name="Rectangle 63969" width="5.176" height="4.544" transform="translate(-0.982 4.245) rotate(-76.971)" fill="#ffd0c9"/>
      </g>
    </g>
    <g id="Group_95881" data-name="Group 95881" transform="translate(16.186 101.203)">
      <g id="Group_95880" data-name="Group 95880" clip-path="url(#clip-path-36)">
        <rect id="Rectangle_63970" data-name="Rectangle 63970" width="5.754" height="6.183" transform="translate(-0.898 0.152) rotate(-9.645)" fill="#ffd0c9"/>
      </g>
    </g>
    <g id="Group_95883" data-name="Group 95883" transform="translate(14.814 99.51)">
      <g id="Group_95882" data-name="Group 95882" clip-path="url(#clip-path-37)">
        <rect id="Rectangle_63971" data-name="Rectangle 63971" width="10.902" height="10.857" transform="matrix(0.685, -0.728, 0.728, 0.685, -4.291, 4.36)" fill="#222"/>
      </g>
    </g>
    <g id="Group_95885" data-name="Group 95885" transform="translate(15.899 104.785)">
      <g id="Group_95884" data-name="Group 95884" clip-path="url(#clip-path-38)">
        <rect id="Rectangle_63972" data-name="Rectangle 63972" width="2.157" height="2.172" transform="translate(-0.44 0.004) rotate(-2.465)" fill="url(#linear-gradient-10)"/>
      </g>
    </g>
    <g id="Group_95887" data-name="Group 95887" transform="translate(12.194 112.038)">
      <g id="Group_95886" data-name="Group 95886" clip-path="url(#clip-path-39)">
        <rect id="Rectangle_63973" data-name="Rectangle 63973" width="3.791" height="4.123" transform="matrix(0.751, -0.661, 0.661, 0.751, -2.532, 2.027)" fill="url(#linear-gradient-11)"/>
      </g>
    </g>
    <g id="Group_95889" data-name="Group 95889" transform="translate(15.877 130.466)">
      <g id="Group_95888" data-name="Group 95888" clip-path="url(#clip-path-40)">
        <rect id="Rectangle_63974" data-name="Rectangle 63974" width="3.017" height="3.059" transform="translate(-0.944 1.654) rotate(-60.668)" fill="url(#linear-gradient-12)"/>
      </g>
    </g>
    <g id="Group_95891" data-name="Group 95891" transform="translate(73.782 23.391)">
      <g id="Group_95890" data-name="Group 95890" clip-path="url(#clip-path-41)">
        <rect id="Rectangle_63975" data-name="Rectangle 63975" width="118.413" height="111.977" transform="matrix(0.065, -0.998, 0.998, 0.065, -10.739, 111.311)" fill="#223a7a"/>
      </g>
    </g>
    <g id="Group_95893" data-name="Group 95893" transform="translate(0 0)">
      <g id="Group_95892" data-name="Group 95892" clip-path="url(#clip-path)">
        <path id="Path_33625" data-name="Path 33625" d="M997.136,246.265a.557.557,0,0,1-.239-1.06l9.323-4.428a.557.557,0,0,1,.478,1.006l-9.323,4.428a.554.554,0,0,1-.239.054" transform="translate(-886.285 -214.082)" fill="#d6e3ff"/>
        <path id="Path_33626" data-name="Path 33626" d="M691.328,326.425a.557.557,0,0,1-.556-.538c-.125-3.721-.059-7.6.195-11.529a6.638,6.638,0,0,1,3.78-5.559l26.542-12.606a.557.557,0,1,1,.478,1.006L695.225,309.8a5.523,5.523,0,0,0-3.147,4.625c-.252,3.893-.317,7.735-.193,11.42a.557.557,0,0,1-.538.575h-.019" transform="translate(-614.268 -263.364)" fill="#d6e3ff"/>
      </g>
    </g>
    <g id="Group_95895" data-name="Group 95895" transform="translate(83.436 33.331)">
      <g id="Group_95894" data-name="Group 95894" clip-path="url(#clip-path-43)">
        <rect id="Rectangle_63977" data-name="Rectangle 63977" width="120.927" height="117.727" transform="translate(-43.045 64.088) rotate(-56.697)" fill="#ebf2ff"/>
      </g>
    </g>
    <g id="Group_95897" data-name="Group 95897" transform="translate(108.204 49.025)">
      <g id="Group_95896" data-name="Group 95896" clip-path="url(#clip-path-44)">
        <rect id="Rectangle_63978" data-name="Rectangle 63978" width="35.445" height="37.5" transform="translate(-8.396 24.021) rotate(-70.735)" fill="#3a6bea"/>
      </g>
    </g>
    <g id="Group_95899" data-name="Group 95899" transform="translate(104.96 70.904)">
      <g id="Group_95898" data-name="Group 95898" clip-path="url(#clip-path-45)">
        <rect id="Rectangle_63979" data-name="Rectangle 63979" width="40.562" height="44.697" transform="translate(-9.413 26.819) rotate(-70.735)" fill="#3a6bea"/>
      </g>
    </g>
    <g id="Group_95901" data-name="Group 95901" transform="translate(117.996 77.104)">
      <g id="Group_95900" data-name="Group 95900" clip-path="url(#clip-path-46)">
        <rect id="Rectangle_63980" data-name="Rectangle 63980" width="21.378" height="15.818" transform="translate(-4.997 17.682) rotate(-74.219)" fill="#193b93"/>
      </g>
    </g>
    <g id="Group_95903" data-name="Group 95903" transform="translate(176.042 92.939)">
      <g id="Group_95902" data-name="Group 95902" clip-path="url(#clip-path-47)">
        <rect id="Rectangle_63981" data-name="Rectangle 63981" width="16.941" height="20.143" transform="translate(-5.895 2.35) rotate(-21.735)" fill="#222"/>
      </g>
    </g>
    <g id="Group_95905" data-name="Group 95905" transform="translate(163.33 87.988)">
      <g id="Group_95904" data-name="Group 95904" clip-path="url(#clip-path-48)">
        <rect id="Rectangle_63982" data-name="Rectangle 63982" width="17.361" height="20.737" transform="matrix(0.915, -0.402, 0.402, 0.915, -6.536, 2.873)" fill="#ffd0c9"/>
      </g>
    </g>
    <g id="Group_95907" data-name="Group 95907" transform="translate(190.635 151.188)">
      <g id="Group_95906" data-name="Group 95906" clip-path="url(#clip-path-49)">
        <rect id="Rectangle_63983" data-name="Rectangle 63983" width="3.558" height="2.926" transform="translate(-0.036)" fill="url(#linear-gradient-13)"/>
      </g>
    </g>
    <g id="Group_95909" data-name="Group 95909" transform="translate(175.32 132.957)">
      <g id="Group_95908" data-name="Group 95908" clip-path="url(#clip-path-50)">
        <rect id="Rectangle_63984" data-name="Rectangle 63984" width="21.082" height="6.58" transform="translate(-1.762 20.596) rotate(-85.11)" fill="#ffd0c9"/>
      </g>
    </g>
    <g id="Group_95911" data-name="Group 95911" transform="translate(174.65 149.886)">
      <g id="Group_95910" data-name="Group 95910" clip-path="url(#clip-path-51)">
        <rect id="Rectangle_63985" data-name="Rectangle 63985" width="5.796" height="4.23" transform="translate(-0.143)" fill="url(#linear-gradient-14)"/>
      </g>
    </g>
    <g id="Group_95913" data-name="Group 95913" transform="translate(182.767 133.062)">
      <g id="Group_95912" data-name="Group 95912" clip-path="url(#clip-path-52)">
        <rect id="Rectangle_63986" data-name="Rectangle 63986" width="20.863" height="12.381" transform="matrix(0.085, -0.996, 0.996, 0.085, -1.701, 19.877)" fill="#ffd0c9"/>
      </g>
    </g>
    <g id="Group_95915" data-name="Group 95915" transform="translate(170.719 101.913)">
      <g id="Group_95914" data-name="Group 95914" clip-path="url(#clip-path-53)">
        <rect id="Rectangle_63987" data-name="Rectangle 63987" width="18.044" height="15.552" transform="translate(-5.247 13.512) rotate(-70.498)" fill="#a0ccff"/>
      </g>
    </g>
    <g id="Group_95917" data-name="Group 95917" transform="translate(173.431 115.43)">
      <g id="Group_95916" data-name="Group 95916" clip-path="url(#clip-path-54)">
        <rect id="Rectangle_63988" data-name="Rectangle 63988" width="23.661" height="20.344" transform="translate(-8.186 16.173) rotate(-63.861)" fill="#a0ccff"/>
      </g>
    </g>
    <g id="Group_95919" data-name="Group 95919" transform="translate(174.869 97.113)">
      <g id="Group_95918" data-name="Group 95918" clip-path="url(#clip-path-55)">
        <rect id="Rectangle_63989" data-name="Rectangle 63989" width="7.041" height="4.647" transform="translate(-0.92 6.468) rotate(-82.216)" fill="#ffd0c9"/>
      </g>
    </g>
    <g id="Group_95921" data-name="Group 95921" transform="translate(179.387 105.316)">
      <g id="Group_95920" data-name="Group 95920" clip-path="url(#clip-path-56)">
        <rect id="Rectangle_63990" data-name="Rectangle 63990" width="10.682" height="14.352" transform="translate(-0.048)" fill="#ffd0c9"/>
      </g>
    </g>
    <g id="Group_95923" data-name="Group 95923" transform="translate(172.869 92.256)">
      <g id="Group_95922" data-name="Group 95922" clip-path="url(#clip-path-57)">
        <rect id="Rectangle_63991" data-name="Rectangle 63991" width="8.764" height="9.016" transform="translate(-3.171 4.711) rotate(-60.668)" fill="#ffd0c9"/>
      </g>
    </g>
    <g id="Group_95925" data-name="Group 95925" transform="translate(174.253 90.365)">
      <g id="Group_95924" data-name="Group 95924" clip-path="url(#clip-path-58)">
        <rect id="Rectangle_63992" data-name="Rectangle 63992" width="9.371" height="10.211" transform="translate(-3.556 1.136) rotate(-21.735)" fill="#222"/>
      </g>
    </g>
    <g id="Group_95927" data-name="Group 95927" transform="translate(177.158 95.165)">
      <g id="Group_95926" data-name="Group 95926" clip-path="url(#clip-path-59)">
        <rect id="Rectangle_63993" data-name="Rectangle 63993" width="2.661" height="2.721" transform="translate(-0.811 1.443) rotate(-60.668)" fill="#ffd0c9"/>
      </g>
    </g>
    <g id="Group_95929" data-name="Group 95929" transform="translate(160.998 83.75)">
      <g id="Group_95928" data-name="Group 95928" clip-path="url(#clip-path-60)">
        <rect id="Rectangle_63994" data-name="Rectangle 63994" width="6.398" height="7.721" transform="translate(-2.643 1.076) rotate(-23.726)" fill="#ffd0c9"/>
      </g>
    </g>
    <g id="Group_95931" data-name="Group 95931" transform="translate(162.378 86.274)">
      <g id="Group_95930" data-name="Group 95930" clip-path="url(#clip-path-61)">
        <rect id="Rectangle_63995" data-name="Rectangle 63995" width="1.791" height="2.858" transform="translate(-0.025)" fill="url(#linear-gradient-15)"/>
      </g>
    </g>
    <g id="Group_95933" data-name="Group 95933" transform="translate(0 0)">
      <g id="Group_95932" data-name="Group 95932" clip-path="url(#clip-path)">
        <rect id="Rectangle_63996" data-name="Rectangle 63996" width="1.362" height="15.35" transform="translate(209.054 138.47)" fill="#7d97f4"/>
        <path id="Path_33646" data-name="Path 33646" d="M1853.139,1385.117h-11.927v-.608a.316.316,0,0,1,.316-.316h11.27a.341.341,0,0,1,.341.341Z" transform="translate(-1637.441 -1231.001)" fill="#7d97f4"/>
        <path id="Rectangle_63997" data-name="Rectangle 63997" d="M2.26,0H13.677a2.26,2.26,0,0,1,2.26,2.26v0a2.26,2.26,0,0,1-2.26,2.26H2.26A2.26,2.26,0,0,1,0,2.26v0A2.26,2.26,0,0,1,2.26,0Z" transform="translate(202.017 134.964)" fill="#7d97f4"/>
      </g>
    </g>
    <g id="Group_95935" data-name="Group 95935" transform="translate(193.503 148.377)">
      <g id="Group_95934" data-name="Group 95934" clip-path="url(#clip-path-63)">
        <rect id="Rectangle_63999" data-name="Rectangle 63999" width="7.284" height="5.701" transform="translate(-1.265 0.264) rotate(-14.472)" fill="url(#linear-gradient-16)"/>
      </g>
    </g>
    <g id="Group_95937" data-name="Group 95937" transform="translate(196.847 146.557)">
      <g id="Group_95936" data-name="Group 95936" clip-path="url(#clip-path-64)">
        <rect id="Rectangle_64000" data-name="Rectangle 64000" width="3.099" height="2.684" transform="translate(-0.569 2.572) rotate(-77.52)" fill="url(#linear-gradient-17)"/>
      </g>
    </g>
    <g id="Group_95939" data-name="Group 95939" transform="translate(194.493 131.719)">
      <g id="Group_95938" data-name="Group 95938" clip-path="url(#clip-path-65)">
        <rect id="Rectangle_64001" data-name="Rectangle 64001" width="21.834" height="21.232" transform="translate(-7.996 2.425) rotate(-23.028)" fill="#222"/>
      </g>
    </g>
    <g id="Group_95941" data-name="Group 95941" transform="translate(192.768 150.416)">
      <g id="Group_95940" data-name="Group 95940" clip-path="url(#clip-path-66)">
        <rect id="Rectangle_64002" data-name="Rectangle 64002" width="7.519" height="5.777" transform="translate(-1.227 0.57) rotate(-24.926)" fill="url(#linear-gradient-18)"/>
      </g>
    </g>
    <g id="Group_95943" data-name="Group 95943" transform="translate(0 0)">
      <g id="Group_95942" data-name="Group 95942" clip-path="url(#clip-path)">
        <path id="Path_33651" data-name="Path 33651" d="M1741.147,1374a7.642,7.642,0,0,0,3.981-1.666,3.437,3.437,0,0,1-1.3,1.132,8.707,8.707,0,0,1-5.307.633c-.467-.181-.323-.618.1-1.034a2.956,2.956,0,0,0,2.522.935" transform="translate(-1545.858 -1220.456)" fill="#91b3fa"/>
      </g>
    </g>
    <g id="Group_95945" data-name="Group 95945" transform="translate(197.94 149.007)">
      <g id="Group_95944" data-name="Group 95944" clip-path="url(#clip-path-68)">
        <rect id="Rectangle_64004" data-name="Rectangle 64004" width="3.08" height="3.058" transform="translate(-0.613 2.467) rotate(-77.52)" fill="url(#linear-gradient-19)"/>
      </g>
    </g>
    <g id="Group_95947" data-name="Group 95947" transform="translate(198.275 131.061)">
      <g id="Group_95946" data-name="Group 95946" clip-path="url(#clip-path-69)">
        <rect id="Rectangle_64005" data-name="Rectangle 64005" width="22.686" height="22.136" transform="translate(-3.589 18.823) rotate(-79.205)" fill="#222"/>
      </g>
    </g>
    <g id="Group_95949" data-name="Group 95949" transform="translate(196.838 117.936)">
      <g id="Group_95948" data-name="Group 95948" clip-path="url(#clip-path-70)">
        <rect id="Rectangle_64006" data-name="Rectangle 64006" width="13.255" height="13.634" transform="matrix(0.845, -0.535, 0.535, 0.845, -4.678, 2.959)" fill="#a0ccff"/>
      </g>
    </g>
    <g id="Group_95951" data-name="Group 95951" transform="translate(189.557 122.594)">
      <g id="Group_95950" data-name="Group 95950" clip-path="url(#clip-path-71)">
        <rect id="Rectangle_64007" data-name="Rectangle 64007" width="6.788" height="8.862" transform="translate(-1.097 4.955) rotate(-77.52)" fill="#ffd0c9"/>
      </g>
    </g>
    <g id="Group_95953" data-name="Group 95953" transform="translate(201.502 113.894)">
      <g id="Group_95952" data-name="Group 95952" clip-path="url(#clip-path-72)">
        <rect id="Rectangle_64008" data-name="Rectangle 64008" width="24.537" height="25.661" transform="translate(-8.842 4.797) rotate(-29.403)" fill="#a0ccff"/>
      </g>
    </g>
    <g id="Group_95955" data-name="Group 95955" transform="translate(204.23 111.26)">
      <g id="Group_95954" data-name="Group 95954" clip-path="url(#clip-path-73)">
        <rect id="Rectangle_64009" data-name="Rectangle 64009" width="6.353" height="6.572" transform="translate(-1.867 0.808) rotate(-23.385)" fill="#ffd0c9"/>
      </g>
    </g>
    <g id="Group_95957" data-name="Group 95957" transform="translate(213.602 114.618)">
      <g id="Group_95956" data-name="Group 95956" clip-path="url(#clip-path-74)">
        <rect id="Rectangle_64010" data-name="Rectangle 64010" width="16.081" height="17.124" transform="translate(-5.8 3.269) rotate(-29.403)" fill="#a0ccff"/>
      </g>
    </g>
    <g id="Group_95959" data-name="Group 95959" transform="translate(207.388 125.029)">
      <g id="Group_95958" data-name="Group 95958" clip-path="url(#clip-path-75)">
        <rect id="Rectangle_64011" data-name="Rectangle 64011" width="9.85" height="14.85" transform="translate(-1.742 4.5) rotate(-68.839)" fill="#ffd0c9"/>
      </g>
    </g>
    <g id="Group_95961" data-name="Group 95961" transform="translate(202.183 106.64)">
      <g id="Group_95960" data-name="Group 95960" clip-path="url(#clip-path-76)">
        <rect id="Rectangle_64012" data-name="Rectangle 64012" width="8.277" height="8.372" transform="translate(-2.33 0.609) rotate(-17.542)" fill="#ffd0c9"/>
      </g>
    </g>
    <g id="Group_95963" data-name="Group 95963" transform="translate(202.806 103.851)">
      <g id="Group_95962" data-name="Group 95962" clip-path="url(#clip-path-77)">
        <rect id="Rectangle_64013" data-name="Rectangle 64013" width="11.493" height="11.496" transform="translate(-4.451 4.098) rotate(-44.659)" fill="#222"/>
      </g>
    </g>
    <g id="Group_95965" data-name="Group 95965" transform="translate(206.516 109.652)">
      <g id="Group_95964" data-name="Group 95964" clip-path="url(#clip-path-78)">
        <rect id="Rectangle_64014" data-name="Rectangle 64014" width="2.41" height="2.355" transform="translate(-0.534 0.169) rotate(-17.542)" fill="#ffd0c9"/>
      </g>
    </g>
    <g id="Group_95967" data-name="Group 95967" transform="translate(191.281 127.835)">
      <g id="Group_95966" data-name="Group 95966" clip-path="url(#clip-path-79)">
        <rect id="Rectangle_64015" data-name="Rectangle 64015" width="13.461" height="5.387" transform="translate(-0.34 0.111) rotate(-18.158)" fill="#444"/>
      </g>
    </g>
    <g id="Group_95969" data-name="Group 95969" transform="translate(179.627 117.49)">
      <g id="Group_95968" data-name="Group 95968" clip-path="url(#clip-path-80)">
        <rect id="Rectangle_64016" data-name="Rectangle 64016" width="20.872" height="21.136" transform="matrix(0.687, -0.726, 0.726, 0.687, -5.892, 6.06)" fill="#444"/>
      </g>
    </g>
    <g id="Group_95971" data-name="Group 95971" transform="translate(186.212 121.732)">
      <g id="Group_95970" data-name="Group 95970" clip-path="url(#clip-path-81)">
        <rect id="Rectangle_64017" data-name="Rectangle 64017" width="3.406" height="3.211" transform="translate(-1.387 1.898) rotate(-56.413)" fill="#fff"/>
      </g>
    </g>
    <g id="Group_95973" data-name="Group 95973" transform="translate(0 0)">
      <g id="Group_95972" data-name="Group 95972" clip-path="url(#clip-path)">
        <path id="Path_33666" data-name="Path 33666" d="M1641.832,1198.946a.585.585,0,0,1-.21-.039.457.457,0,0,1-.278-.624l11.154-23.143a.558.558,0,0,1,.7-.248.457.457,0,0,1,.278.624l-11.154,23.143a.538.538,0,0,1-.489.287" transform="translate(-1459.654 -1044.83)" fill="#7d97f4"/>
        <path id="Path_33667" data-name="Path 33667" d="M1665.737,1198.946a.537.537,0,0,1-.489-.287l-11.154-23.143a.457.457,0,0,1,.278-.624.558.558,0,0,1,.7.248l11.154,23.142a.457.457,0,0,1-.278.624.583.583,0,0,1-.21.039" transform="translate(-1470.993 -1044.829)" fill="#7d97f4"/>
        <path id="Path_33668" data-name="Path 33668" d="M1953.8,1198.946a.585.585,0,0,1-.21-.039.457.457,0,0,1-.278-.624l11.154-23.143a.558.558,0,0,1,.7-.248.457.457,0,0,1,.279.624l-11.154,23.143a.538.538,0,0,1-.489.287" transform="translate(-1737.099 -1044.83)" fill="#7d97f4"/>
        <path id="Path_33669" data-name="Path 33669" d="M1977.707,1198.946a.537.537,0,0,1-.489-.287l-11.154-23.143a.457.457,0,0,1,.278-.624.558.558,0,0,1,.7.248l11.154,23.142a.457.457,0,0,1-.278.624.583.583,0,0,1-.21.039" transform="translate(-1748.437 -1044.829)" fill="#7d97f4"/>
        <path id="Path_33670" data-name="Path 33670" d="M1667.082,1165.033a.642.642,0,0,0-.106-.477.479.479,0,0,0-.387-.21h-50.743a.564.564,0,0,0-.487.307.75.75,0,0,0-.038.636l.55,1.368a.771.771,0,0,0,.7.514h49.67a.611.611,0,0,0,.572-.543Z" transform="translate(-1436.504 -1035.485)" fill="#bdd0fb"/>
        <path id="Path_33671" data-name="Path 33671" d="M1481.078,217.873l-36.282-.2a1.9,1.9,0,0,0-1.643,2.885l.182.3a1.9,1.9,0,0,0,1.633.924h36.1a1.9,1.9,0,0,0,1.9-1.9v-.1a1.9,1.9,0,0,0-1.894-1.9" transform="translate(-1283.192 -193.58)" fill="#91b3fa"/>
        <path id="Path_33672" data-name="Path 33672" d="M1833.836,221.783v.059a1.9,1.9,0,0,0,1.9,1.9h8.054a1.9,1.9,0,0,0,.014-3.809l-8.054-.059a1.9,1.9,0,0,0-1.918,1.9" transform="translate(-1630.881 -195.544)" fill="#91b3fa"/>
        <path id="Path_33673" data-name="Path 33673" d="M1472.351,279.644l-27.554-.2a1.9,1.9,0,0,0-1.643,2.885l.182.3a1.9,1.9,0,0,0,1.633.924h27.372a1.9,1.9,0,0,0,1.9-1.9v-.1a1.9,1.9,0,0,0-1.894-1.9" transform="translate(-1283.192 -248.515)" fill="#91b3fa"/>
        <path id="Path_33674" data-name="Path 33674" d="M1754.976,283.554v.059a1.9,1.9,0,0,0,1.9,1.9h8.054a1.9,1.9,0,0,0,.014-3.809l-8.054-.059a1.9,1.9,0,0,0-1.918,1.9" transform="translate(-1560.749 -250.478)" fill="#91b3fa"/>
        <path id="Path_33675" data-name="Path 33675" d="M555.349,453.7a.446.446,0,0,1-.37-.693q.183-.275.362-.553a.445.445,0,1,1,.75.481q-.183.285-.37.565a.445.445,0,0,1-.371.2m1.182-1.887a.445.445,0,0,1-.384-.671q.167-.285.33-.572a.445.445,0,1,1,.776.438q-.166.295-.337.586a.445.445,0,0,1-.385.22m1.073-1.951a.446.446,0,0,1-.4-.649q.151-.294.3-.59a.445.445,0,1,1,.8.393q-.149.3-.3.6a.445.445,0,0,1-.4.242m.959-2.01a.446.446,0,0,1-.407-.626q.134-.3.262-.606a.445.445,0,0,1,.821.346q-.131.311-.268.621a.446.446,0,0,1-.408.266m.84-2.063a.446.446,0,0,1-.417-.6q.115-.31.225-.621a.445.445,0,0,1,.84.3q-.112.319-.231.636a.445.445,0,0,1-.417.29m-110.782-.842a.445.445,0,0,1,0-.891q.331,0,.661-.005h.007a.445.445,0,0,1,.007.891q-.337,0-.675.005m-1.557-.027h-.016q-.337-.012-.673-.028a.445.445,0,0,1,.043-.89q.33.016.66.028a.445.445,0,0,1-.015.891m3.783-.026a.445.445,0,0,1-.02-.891q.331-.015.661-.034a.445.445,0,1,1,.052.889q-.335.02-.672.035h-.021m-6-.1-.038,0q-.336-.028-.672-.061a.445.445,0,0,1,.087-.887q.329.032.658.06a.445.445,0,0,1-.036.889m8.222-.042a.445.445,0,0,1-.038-.889q.33-.029.659-.061a.445.445,0,0,1,.087.887q-.335.033-.669.062l-.039,0m-10.435-.2a.463.463,0,0,1-.059,0q-.334-.044-.668-.093a.445.445,0,0,1,.13-.881q.327.048.655.091a.445.445,0,0,1-.058.887m12.647-.039a.445.445,0,0,1-.055-.887q.329-.041.657-.087a.445.445,0,1,1,.122.883q-.333.046-.667.088a.468.468,0,0,1-.057,0m-14.846-.306a.437.437,0,0,1-.08-.007q-.332-.06-.663-.125a.445.445,0,1,1,.171-.874q.325.064.65.123a.445.445,0,0,1-.079.884m17.048-.016a.446.446,0,0,1-.072-.885q.327-.054.653-.112a.446.446,0,1,1,.155.877q-.331.058-.663.113a.443.443,0,0,1-.073.006m2.189-.4a.446.446,0,0,1-.088-.882q.325-.066.649-.136a.445.445,0,0,1,.187.871q-.329.071-.659.138a.446.446,0,0,1-.089.009m-21.419-.029a.449.449,0,0,1-.1-.012q-.328-.076-.656-.156a.445.445,0,1,1,.212-.865q.322.079.644.153a.446.446,0,0,1-.1.88m121.868-.077a.446.446,0,0,1-.426-.575q.1-.316.186-.633a.445.445,0,1,1,.857.244q-.092.326-.191.649a.446.446,0,0,1-.426.316m-98.274-.376a.445.445,0,0,1-.1-.879q.323-.077.644-.158a.445.445,0,1,1,.217.864q-.326.082-.653.161a.447.447,0,0,1-.1.012m-25.752-.1a.447.447,0,0,1-.121-.017q-.325-.092-.649-.188a.445.445,0,0,1,.254-.854q.318.094.636.184a.445.445,0,0,1-.12.874M464,442.75a.445.445,0,0,1-.118-.875q.32-.088.639-.18a.445.445,0,1,1,.246.856q-.323.093-.648.183a.447.447,0,0,1-.119.016m-30.039-.2a.442.442,0,0,1-.141-.023q-.32-.107-.639-.219a.445.445,0,0,1,.294-.841q.313.11.627.215a.446.446,0,0,1-.141.868m32.177-.432a.445.445,0,0,1-.132-.871l.634-.2a.445.445,0,1,1,.273.848q-.32.1-.641.2a.443.443,0,0,1-.133.02m-34.274-.325a.443.443,0,0,1-.161-.031q-.315-.123-.628-.25a.445.445,0,0,1,.336-.825q.307.125.616.245a.446.446,0,0,1-.162.861m128.835-.262a.446.446,0,0,1-.434-.548q.076-.321.146-.644a.445.445,0,1,1,.871.189q-.072.33-.15.66a.446.446,0,0,1-.433.343m-92.444-.109a.446.446,0,0,1-.146-.866l.628-.22a.445.445,0,1,1,.3.839q-.317.113-.634.223a.444.444,0,0,1-.146.025m-38.448-.489a.442.442,0,0,1-.182-.039q-.309-.138-.615-.281a.445.445,0,1,1,.376-.808q.3.14.6.275a.446.446,0,0,1-.182.852m40.544-.27a.446.446,0,0,1-.158-.862q.311-.118.621-.238a.445.445,0,1,1,.323.83q-.314.122-.628.241a.447.447,0,0,1-.158.029m-42.556-.693a.443.443,0,0,1-.2-.049q-.3-.154-.6-.312a.445.445,0,1,1,.417-.787q.293.155.588.306a.446.446,0,0,1-.2.842m44.629-.126a.446.446,0,0,1-.17-.858q.308-.126.614-.255a.445.445,0,0,1,.345.821l-.621.258a.446.446,0,0,1-.169.034m88.718-.5a.451.451,0,0,1-.075-.006.446.446,0,0,1-.365-.513q.055-.325.1-.651a.445.445,0,1,1,.881.13q-.049.335-.106.669a.446.446,0,0,1-.439.371m-86.668-.378a.446.446,0,0,1-.18-.853l.608-.271a.445.445,0,0,1,.366.812q-.307.138-.614.274a.443.443,0,0,1-.18.038m-48.639-.066a.443.443,0,0,1-.223-.06q-.293-.17-.583-.344a.445.445,0,0,1,.459-.764q.284.17.571.336a.446.446,0,0,1-.224.831m50.666-.86a.446.446,0,0,1-.19-.848l.6-.286a.445.445,0,0,1,.386.8l-.607.289a.444.444,0,0,1-.19.043m-52.566-.309a.443.443,0,0,1-.243-.073q-.283-.185-.564-.375a.445.445,0,0,1,.5-.738q.274.186.552.367a.445.445,0,0,1-.244.818m137.5-.595-.045,0a.446.446,0,0,1-.4-.488q.033-.328.058-.656a.445.445,0,0,1,.888.07q-.026.338-.06.675a.445.445,0,0,1-.443.4m-82.932-.072a.445.445,0,0,1-.2-.844l.594-.3a.445.445,0,1,1,.4.794l-.6.3a.444.444,0,0,1-.2.047m-56.4-.606a.443.443,0,0,1-.264-.087q-.273-.2-.542-.406a.445.445,0,0,1,.541-.708q.263.2.529.4a.445.445,0,0,1-.265.8m58.384-.415a.446.446,0,0,1-.209-.839l.588-.313a.445.445,0,0,1,.422.785l-.592.316a.445.445,0,0,1-.208.052m-60.14-.96a.444.444,0,0,1-.285-.1q-.26-.217-.517-.438a.445.445,0,0,1,.582-.675q.25.216.5.427a.445.445,0,0,1-.285.788m62.1-.1a.446.446,0,0,1-.217-.835l.581-.325a.445.445,0,0,1,.437.776l-.586.328a.444.444,0,0,1-.216.056m79.134-.068h-.013a.445.445,0,0,1-.432-.458q.009-.329.011-.658a.446.446,0,0,1,.445-.442h0a.446.446,0,0,1,.442.448q0,.339-.012.678a.445.445,0,0,1-.445.433m-77.2-1.034a.446.446,0,0,1-.225-.83l.575-.337a.445.445,0,1,1,.452.768l-.579.339a.444.444,0,0,1-.224.061m-65.7-.272a.444.444,0,0,1-.305-.121q-.247-.232-.489-.469a.445.445,0,1,1,.623-.637q.236.231.477.457a.445.445,0,0,1-.305.77m67.62-.866a.446.446,0,0,1-.232-.826l.568-.347a.445.445,0,0,1,.466.759l-.572.349a.445.445,0,0,1-.231.065m75.264-.054a.445.445,0,0,1-.445-.425q-.015-.329-.037-.657a.445.445,0,0,1,.889-.06q.023.338.038.677a.445.445,0,0,1-.425.465h-.02M417.1,432.039a.444.444,0,0,1-.325-.141q-.231-.247-.458-.5a.445.445,0,0,1,.661-.6q.221.245.447.486a.446.446,0,0,1-.325.75m71.087-.462a.446.446,0,0,1-.238-.822l.562-.357a.446.446,0,0,1,.479.751l-.566.359a.444.444,0,0,1-.237.069m73.186-1.1a.445.445,0,0,1-.442-.391q-.04-.326-.088-.651a.445.445,0,0,1,.881-.13q.049.336.091.672a.445.445,0,0,1-.388.5.453.453,0,0,1-.055,0m-71.313-.1a.445.445,0,0,1-.245-.818l.556-.366a.445.445,0,0,1,.491.743l-.559.368a.444.444,0,0,1-.244.073m-74.429-.009a.445.445,0,0,1-.345-.163q-.214-.261-.424-.527a.445.445,0,1,1,.7-.551q.2.259.413.514a.445.445,0,0,1-.344.728m76.282-1.224a.445.445,0,0,1-.25-.814l.55-.374a.445.445,0,1,1,.5.736l-.553.376a.444.444,0,0,1-.249.076m-77.634-.543a.445.445,0,0,1-.363-.187q-.2-.275-.387-.555a.445.445,0,0,1,.736-.5q.185.272.376.54a.445.445,0,0,1-.362.7m146.735-.318a.446.446,0,0,1-.436-.356q-.066-.322-.14-.643a.445.445,0,1,1,.868-.2q.076.331.144.663a.446.446,0,0,1-.437.535m-67.267-.4a.445.445,0,0,1-.255-.811l.545-.382a.445.445,0,0,1,.513.729L494,427.8a.443.443,0,0,1-.254.08m-80.693-1.137a.445.445,0,0,1-.38-.213q-.176-.288-.346-.58a.445.445,0,0,1,.77-.448q.165.284.336.564a.445.445,0,0,1-.38.678m82.512-.148a.445.445,0,0,1-.259-.808l.542-.389a.445.445,0,1,1,.52.723l-.544.39a.443.443,0,0,1-.258.083m64.915-.477a.446.446,0,0,1-.428-.322q-.091-.316-.19-.63a.445.445,0,0,1,.85-.268q.1.324.2.65a.446.446,0,0,1-.428.57m-63.107-.825a.445.445,0,0,1-.262-.806l.54-.393a.446.446,0,0,1,.524.721l-.541.393a.444.444,0,0,1-.261.085m-85.408-.486a.445.445,0,0,1-.4-.241q-.155-.3-.3-.606a.445.445,0,1,1,.8-.391q.145.3.3.588a.446.446,0,0,1-.4.65m147.812-.8a.446.446,0,0,1-.417-.288q-.116-.308-.24-.612a.445.445,0,0,1,.826-.335q.127.315.247.632a.446.446,0,0,1-.417.6m-60.6-.024a.446.446,0,0,1-.263-.805l.54-.394a.445.445,0,1,1,.525.719l-.539.394a.444.444,0,0,1-.263.086m-88.158-1.188a.446.446,0,0,1-.41-.271q-.133-.311-.259-.626a.445.445,0,1,1,.827-.332q.123.306.252.608a.446.446,0,0,1-.409.621m89.957-.126a.445.445,0,0,1-.263-.805l.54-.394a.445.445,0,0,1,.524.72l-.54.393a.444.444,0,0,1-.262.086m57.936-.713a.446.446,0,0,1-.4-.256q-.14-.3-.288-.591a.446.446,0,1,1,.8-.4q.152.3.3.611a.446.446,0,0,1-.4.636m-56.134-.6a.446.446,0,0,1-.261-.807l.542-.391a.445.445,0,1,1,.52.723l-.541.39a.444.444,0,0,1-.261.084m-92.555-.644a.446.446,0,0,1-.422-.3q-.109-.322-.21-.646a.445.445,0,0,1,.851-.265q.1.314.2.626a.446.446,0,0,1-.422.588m94.365-.653a.445.445,0,0,1-.258-.809l.547-.387a.445.445,0,1,1,.513.728l-.544.385a.443.443,0,0,1-.258.082m53.292-.081a.445.445,0,0,1-.387-.224q-.164-.285-.335-.565a.445.445,0,1,1,.761-.464q.177.29.346.585a.446.446,0,0,1-.386.668m-51.469-1.2a.445.445,0,0,1-.254-.812l.552-.38a.445.445,0,0,1,.5.735l-.549.378a.443.443,0,0,1-.253.079m-96.817-.2a.446.446,0,0,1-.432-.337q-.082-.329-.158-.66a.445.445,0,1,1,.869-.2q.073.321.153.64a.446.446,0,0,1-.432.554m147.1-.48a.445.445,0,0,1-.367-.192q-.187-.27-.381-.535a.446.446,0,0,1,.719-.526q.2.274.394.554a.445.445,0,0,1-.366.7m-48.438-.567a.445.445,0,0,1-.248-.816l.559-.371a.445.445,0,0,1,.491.744l-.554.368a.443.443,0,0,1-.247.075M409.136,416.4a.446.446,0,0,1-.439-.371q-.057-.335-.106-.67a.445.445,0,1,1,.882-.129q.048.326.1.65a.445.445,0,0,1-.364.514.451.451,0,0,1-.075.007m146.209-.076a.444.444,0,0,1-.343-.161q-.21-.253-.426-.5a.445.445,0,1,1,.671-.586q.224.256.441.518a.445.445,0,0,1-.343.73m-45.229-.011a.446.446,0,0,1-.24-.821l.567-.359a.446.446,0,0,1,.475.754l-.562.356a.443.443,0,0,1-.24.07m1.891-1.177a.446.446,0,0,1-.231-.827q.287-.174.576-.345a.445.445,0,0,1,.455.766q-.286.17-.57.342a.444.444,0,0,1-.23.064m41.842-.462a.444.444,0,0,1-.316-.132q-.231-.233-.468-.459a.445.445,0,0,1,.614-.645q.246.235.486.476a.445.445,0,0,1-.316.759m-145-.483a.445.445,0,0,1-.443-.4q-.032-.338-.056-.676a.445.445,0,1,1,.889-.063q.023.329.054.656a.445.445,0,0,1-.4.485l-.042,0m105.082-.182a.446.446,0,0,1-.22-.833q.292-.166.586-.329a.445.445,0,1,1,.432.779q-.29.161-.579.325a.443.443,0,0,1-.219.058m38.282-.841a.444.444,0,0,1-.285-.1q-.251-.21-.509-.412a.446.446,0,0,1,.551-.7q.268.211.529.429a.445.445,0,0,1-.286.787m-36.328-.227a.446.446,0,0,1-.208-.84q.3-.157.6-.31a.445.445,0,1,1,.406.793q-.3.151-.589.305a.445.445,0,0,1-.207.051m-107.162-.973a.445.445,0,0,1-.445-.436q-.006-.319-.006-.638v-.039a.445.445,0,1,1,.891,0v.039q0,.31.006.62a.445.445,0,0,1-.436.454h-.009m109.152-.027a.445.445,0,0,1-.193-.847q.3-.146.609-.288a.445.445,0,0,1,.376.808q-.3.14-.6.283a.443.443,0,0,1-.193.044m32.562-.115a.443.443,0,0,1-.251-.078q-.27-.184-.546-.36a.445.445,0,0,1,.479-.751q.287.183.568.375a.446.446,0,0,1-.251.814m-30.535-.809a.446.446,0,0,1-.177-.855q.309-.134.622-.263a.445.445,0,1,1,.341.823q-.306.127-.609.258a.445.445,0,0,1-.177.037m28.636-.352a.444.444,0,0,1-.213-.055q-.288-.157-.58-.306a.445.445,0,0,1,.4-.794q.3.154.6.318a.446.446,0,0,1-.214.836m-26.57-.479a.446.446,0,0,1-.156-.863q.316-.118.635-.232a.445.445,0,1,1,.3.839q-.312.111-.622.227a.445.445,0,0,1-.156.028m-113.21-.444h-.023a.446.446,0,0,1-.422-.468q.017-.338.041-.676a.445.445,0,1,1,.889.064q-.023.329-.04.657a.446.446,0,0,1-.444.423m137.777-.051a.444.444,0,0,1-.175-.036q-.3-.129-.607-.25a.445.445,0,1,1,.329-.828q.316.125.629.26a.446.446,0,0,1-.176.855m-22.462-.232a.445.445,0,0,1-.134-.87q.321-.1.645-.2a.445.445,0,0,1,.256.853q-.317.1-.632.2a.446.446,0,0,1-.135.021m20.378-.551a.446.446,0,0,1-.138-.022q-.312-.1-.627-.194a.445.445,0,0,1,.252-.854q.326.1.65.2a.446.446,0,0,1-.138.869m-18.238-.066a.446.446,0,0,1-.112-.877q.327-.085.655-.165a.445.445,0,0,1,.211.866q-.321.078-.641.161a.445.445,0,0,1-.113.014m2.169-.5a.446.446,0,0,1-.089-.882q.331-.067.664-.129a.445.445,0,1,1,.163.876q-.325.06-.648.126a.448.448,0,0,1-.089.009m13.924-.025a.446.446,0,0,1-.1-.012q-.32-.074-.641-.14a.445.445,0,0,1,.179-.873q.333.068.664.145a.446.446,0,0,1-.1.88m-11.73-.357a.446.446,0,0,1-.063-.886q.335-.048.67-.091a.445.445,0,0,1,.112.884q-.327.041-.654.089a.441.441,0,0,1-.065,0m9.543-.056a.445.445,0,0,1-.066,0q-.325-.048-.651-.088a.445.445,0,1,1,.109-.884q.337.042.672.091a.446.446,0,0,1-.065.886m-7.33-.2a.445.445,0,0,1-.037-.889q.337-.028.674-.05a.445.445,0,1,1,.058.889q-.329.022-.658.049l-.038,0m5.117-.043h-.032q-.328-.023-.657-.04a.445.445,0,0,1,.044-.89q.339.017.676.041a.445.445,0,0,1-.031.89m-2.893-.072A.445.445,0,0,1,535,406.7q.328-.007.656-.007a.454.454,0,0,1,.456.445.437.437,0,0,1-.435.445h-.021q-.319,0-.638.006h-.009m-126.064-.063a.445.445,0,0,1-.443-.5q.041-.336.088-.672a.445.445,0,0,1,.882.125q-.046.326-.085.653a.446.446,0,0,1-.442.392m.341-2.2a.446.446,0,0,1-.438-.528q.063-.333.133-.664a.445.445,0,0,1,.872.184q-.068.322-.129.646a.446.446,0,0,1-.437.363m.487-2.173a.451.451,0,0,1-.112-.014.445.445,0,0,1-.319-.543q.085-.328.176-.654a.445.445,0,1,1,.858.241q-.089.317-.172.636a.446.446,0,0,1-.431.334m.629-2.136a.446.446,0,0,1-.423-.585q.106-.321.219-.64a.445.445,0,0,1,.84.3q-.11.311-.213.625a.446.446,0,0,1-.423.306m.767-2.091a.446.446,0,0,1-.413-.613q.127-.314.26-.625a.445.445,0,0,1,.819.35q-.13.3-.253.609a.446.446,0,0,1-.413.278m.9-2.036a.446.446,0,0,1-.4-.639q.147-.3.3-.607a.445.445,0,0,1,.795.4q-.149.294-.293.592a.445.445,0,0,1-.4.252m1.033-1.973a.446.446,0,0,1-.387-.665q.167-.295.34-.586a.445.445,0,1,1,.766.454q-.168.284-.331.571a.445.445,0,0,1-.388.226m1.162-1.9a.445.445,0,0,1-.372-.69q.186-.283.378-.562a.445.445,0,0,1,.734.5q-.187.272-.368.547a.445.445,0,0,1-.372.2m1.287-1.818a.445.445,0,0,1-.354-.715q.205-.27.416-.535a.445.445,0,1,1,.7.554q-.2.258-.4.521a.445.445,0,0,1-.355.176m1.409-1.725a.445.445,0,0,1-.335-.739q.223-.255.452-.5a.445.445,0,0,1,.657.6q-.222.243-.44.491a.444.444,0,0,1-.335.152m1.527-1.621a.445.445,0,0,1-.313-.762q.241-.238.488-.471a.445.445,0,0,1,.612.647q-.239.226-.473.458a.444.444,0,0,1-.313.129m1.64-1.506a.445.445,0,0,1-.289-.784q.258-.22.521-.434a.445.445,0,1,1,.562.691q-.255.208-.505.421a.444.444,0,0,1-.289.106m1.748-1.379a.445.445,0,0,1-.263-.805q.274-.2.552-.393a.445.445,0,1,1,.508.732q-.27.188-.536.381a.443.443,0,0,1-.262.085m1.848-1.239a.445.445,0,0,1-.234-.825q.288-.177.581-.348a.446.446,0,0,1,.449.77q-.284.165-.563.337a.444.444,0,0,1-.233.066m1.939-1.089a.446.446,0,0,1-.2-.842q.2-.1.4-.2a.446.446,0,0,1,.391.8q-.195.1-.387.193a.444.444,0,0,1-.2.049" transform="translate(-363.084 -339.324)" fill="#faf3fe"/>
        <path id="Path_33676" data-name="Path 33676" d="M595.888,337.227l.931,3.049,1.665-1.942Z" transform="translate(-529.94 -299.905)" fill="#7d97f4"/>
        <path id="Path_33677" data-name="Path 33677" d="M579.5,283.575l-6.029,9.738a.807.807,0,0,1-1.136.245l-9.549-6.422a.323.323,0,0,1,.123-.587Z" transform="translate(-500.369 -252.191)" fill="#91b3fa"/>
        <path id="Path_33678" data-name="Path 33678" d="M595.9,289.513l13.177-5.938-11.639,6.979.222.857Z" transform="translate(-529.949 -252.191)" fill="#7d97f4"/>
        <path id="Path_33679" data-name="Path 33679" d="M605.827,347.245l-1.524,1.4.608-2.008Z" transform="translate(-537.423 -308.271)" fill="#7d97f4"/>
      </g>
    </g>
  </g>
</svg>
