<svg xmlns="http://www.w3.org/2000/svg" width="94.477" height="94.079" viewBox="0 0 94.477 94.079">
  <g id="download_8_" data-name="download (8)" transform="translate(-151.521 -149.625)">
    <path id="Path_34427" data-name="Path 34427" d="M161.487,527.088h3.986a5.78,5.78,0,0,1,5.78-5.78,5.178,5.178,0,0,1,2.093.4l1.694.7.8-1.694a5.483,5.483,0,0,1,4.783-2.89A5.283,5.283,0,0,1,185.9,522.8l.2,2.69,2.492-.9,1.395-.2h0a4.185,4.185,0,0,1,4.185,4.186v.2h3.986v-.3h0a8.172,8.172,0,0,0-8.172-8.172h-.5a9.266,9.266,0,0,0-8.869-6.478,9.068,9.068,0,0,0-7.374,3.688l-1.993-.2h0a7.482,7.482,0,0,0-2.591.4,9.369,9.369,0,0,0-8.77-6.279,9.168,9.168,0,0,0-8.372,5.083l3.588,1.794a5.281,5.281,0,0,1,4.783-2.889,5.181,5.181,0,0,1,5.083,4.085,10.066,10.066,0,0,0-3.488,7.574Z" transform="translate(0 -285.676)" fill="#fff"/>
    <path id="Path_34428" data-name="Path 34428" d="M427.062,531.385a5.281,5.281,0,0,1,5.281,4.982l3.986-.2h0a9.269,9.269,0,0,0-9.268-8.77,9.468,9.468,0,0,0-6.279,2.392,10.663,10.663,0,0,0-9.169-5.082,10.962,10.962,0,0,0-10.165,6.976,11.062,11.062,0,0,0-8.87,6.677l3.687,1.5h0a6.978,6.978,0,0,1,6.478-4.286h1.794l.3-1.595h0a6.876,6.876,0,0,1,13.653,1.494,6.38,6.38,0,0,1-.3,1.993l3.787,1.3a8.579,8.579,0,0,0,.5-3.189,7.587,7.587,0,0,0-.1-1.494,5.181,5.181,0,0,1,4.685-2.69Z" transform="translate(-190.332 -296.152)" fill="#fff"/>
    <path id="Path_34429" data-name="Path 34429" d="M346.939,279.032a7.872,7.872,0,1,0-5.567-2.306A7.873,7.873,0,0,0,346.939,279.032Zm0-11.76a3.887,3.887,0,1,1-2.749,1.138,3.889,3.889,0,0,1,2.749-1.138Z" transform="translate(-148.079 -89.742)" fill="#ffe51c"/>
    <path id="Path_34430" data-name="Path 34430" d="M297.567,208.923l1.3-1.5h0a14.65,14.65,0,0,0-.9-20.829,16.843,16.843,0,0,0-6.08-3.687c-.4-11.76-5.282-22.723-14.551-31.891l-1.394-1.395-1.4,1.4c-9.268,9.169-14.152,20.131-14.55,31.891h0a15.749,15.749,0,0,0-5.979,3.687,14.649,14.649,0,0,0-1,20.829l1.3,1.5,8.671-7.773h0a46.923,46.923,0,0,0,5.281,10.463c1.5,2.192,5.082,3.089,8.072,3.089h.1c1.595,0,5.282-.3,6.876-2.492h0A52.438,52.438,0,0,0,288.9,201.15Zm1.2-11.859a10.662,10.662,0,0,1-1.595,6.079l-6.578-5.88h.2l-.5-.6c.3-1,.5-1.893.7-2.89h0a49.137,49.137,0,0,0,.8-6.578,21.1,21.1,0,0,1,3.489,2.492,10.969,10.969,0,0,1,3.488,7.375Zm-22.822-41.757a49.46,49.46,0,0,1,5.381,6.876,13.452,13.452,0,0,1-10.763,0,49.422,49.422,0,0,1,5.382-6.876Zm-7.375,10.364a17.536,17.536,0,0,0,7.375,1.595,17.236,17.236,0,0,0,7.374-1.595,41.852,41.852,0,0,1,3.787,27.306c-.2.7-.3,1.395-.5,2.192a20.132,20.132,0,0,1-21.327,0c-.1-.7-.3-1.395-.4-2.093a40.362,40.362,0,0,1,3.687-27.4Zm-11.959,23.918A21.015,21.015,0,0,1,260.1,187.1a39.53,39.53,0,0,0,.9,6.777,13.01,13.01,0,0,0,.6,2.691l-.4.6h.1l-6.578,5.88a10.963,10.963,0,0,1,1.894-13.454Zm23.419,20.33a7.364,7.364,0,0,1-4.285.8c-2.392-.2-3.887-.9-4.186-1.3a44.864,44.864,0,0,1-4.584-8.969,23.319,23.319,0,0,0,17.939,0,50.143,50.143,0,0,1-4.884,9.467Z" transform="translate(-77.083)" fill="#fff"/>
    <path id="Path_34431" data-name="Path 34431" d="M367,484.45h3.986v10.5H367Z" transform="translate(-170.135 -264.366)" fill="#ffe51c"/>
    <path id="Path_34432" data-name="Path 34432" d="M411.05,471.19h3.986v8.64H411.05Z" transform="translate(-204.915 -253.896)" fill="#ffe51c"/>
    <path id="Path_34433" data-name="Path 34433" d="M322.96,471.19h3.986v8.64H322.96Z" transform="translate(-135.362 -253.896)" fill="#ffe51c"/>
  </g>
</svg>
