<svg xmlns="http://www.w3.org/2000/svg" width="97" height="94.45" viewBox="0 0 97 94.45">
  <g id="Group_97040" data-name="Group 97040" transform="translate(-84 -53.902)">
    <path id="download_3_" data-name="download (3)" d="M168.7,174.728a1.205,1.205,0,0,0-1.077,1.206v24.217a1.2,1.2,0,0,0,1.2,1.215h23.925a1.2,1.2,0,0,0,1.192-1.215V175.934a1.2,1.2,0,0,0-1.192-1.206h-.035L183,191.1h0a1.188,1.188,0,0,1-1.855.248l-5.967-5.818h0a1.224,1.224,0,0,1-.072-1.751,1.189,1.189,0,0,1,1.731,0l4.892,4.771,8.189-13.827h-21.1c-.041,0-.083,0-.124,0Zm39.624,4.835a1.189,1.189,0,0,0-.851.353,1.221,1.221,0,0,0,0,1.719,1.189,1.189,0,0,0,.851.353h55a1.189,1.189,0,0,0,.851-.353,1.223,1.223,0,0,0,0-1.719,1.189,1.189,0,0,0-.851-.353Zm0,14.536a1.185,1.185,0,0,0-.865.345,1.22,1.22,0,0,0,0,1.732,1.185,1.185,0,0,0,.865.345h55a1.184,1.184,0,0,0,.865-.345,1.22,1.22,0,0,0,0-1.732,1.185,1.185,0,0,0-.865-.345ZM168.7,208.633a1.206,1.206,0,0,0-1.077,1.209v24.224h0a1.2,1.2,0,0,0,1.192,1.206h23.932a1.2,1.2,0,0,0,1.191-1.206V209.84h0a1.2,1.2,0,0,0-1.191-1.209H168.813Q168.756,208.63,168.7,208.633Zm1.316,2.424h21.531v21.793H170.014Zm93.439,2.417h0a1.251,1.251,0,0,0-.131,0h-55q-.057,0-.115,0a1.212,1.212,0,0,0,.115,2.412h55a1.185,1.185,0,0,0,.888-.291,1.222,1.222,0,0,0,.095-1.738,1.185,1.185,0,0,0-.852-.388Zm-55.13,14.532a1.211,1.211,0,0,0,0,2.422h55a1.186,1.186,0,0,0,.863-.346,1.22,1.22,0,0,0,0-1.73,1.187,1.187,0,0,0-.863-.346Zm-39.51,14.533a1.2,1.2,0,0,0-1.192,1.206v24.226a1.2,1.2,0,0,0,1.192,1.206h23.932a1.2,1.2,0,0,0,1.191-1.206V243.745a1.2,1.2,0,0,0-1.191-1.206Zm1.2,2.421h21.531v21.794H170.014Zm38.195,2.424a1.213,1.213,0,0,0,.114,2.422h55a1.189,1.189,0,0,0,.865-.345,1.221,1.221,0,0,0,0-1.733,1.19,1.19,0,0,0-.865-.345h-55q-.057,0-.115,0Zm.115,14.524h0a1.192,1.192,0,0,0-.853.352,1.224,1.224,0,0,0,0,1.721,1.191,1.191,0,0,0,.853.351h55a1.192,1.192,0,0,0,.854-.351,1.224,1.224,0,0,0,0-1.721,1.192,1.192,0,0,0-.854-.352Z" transform="translate(-83.621 -120.826)" fill="#fff"/>
    <path id="download_3_2" data-name="download (3)" d="M168.7,174.728a1.206,1.206,0,0,0-1.078,1.207v24.236a1.2,1.2,0,0,0,1.2,1.216h23.944a1.206,1.206,0,0,0,1.193-1.216V175.935a1.2,1.2,0,0,0-1.193-1.207h-.035l-9.716,16.389h0a1.189,1.189,0,0,1-1.856.249l-5.972-5.823h0a1.225,1.225,0,0,1-.072-1.752,1.19,1.19,0,0,1,1.733,0l4.9,4.774,8.2-13.838H168.823c-.041,0-.083,0-.124,0Zm39.655,4.838a1.19,1.19,0,0,0-.852.353,1.222,1.222,0,0,0,0,1.72,1.19,1.19,0,0,0,.852.353h55.04a1.19,1.19,0,0,0,.852-.353,1.224,1.224,0,0,0,0-1.72,1.19,1.19,0,0,0-.852-.353Zm0,14.548a1.185,1.185,0,0,0-.865.345,1.221,1.221,0,0,0,0,1.734,1.186,1.186,0,0,0,.865.345h55.04a1.185,1.185,0,0,0,.865-.345,1.221,1.221,0,0,0,0-1.734,1.186,1.186,0,0,0-.865-.345Z" transform="translate(-83.621 -120.698)" fill="#ffe51c"/>
  </g>
</svg>
