<svg id="download_7_" data-name="download (7)" xmlns="http://www.w3.org/2000/svg" xmlns:xlink="http://www.w3.org/1999/xlink" width="94.352" height="94.352" viewBox="0 0 94.352 94.352">
  <defs>
    <clipPath id="clip-path">
      <path id="Path_34412" data-name="Path 34412" d="M139.21,139.21h94.352v94.352H139.21Z" transform="translate(-139.21 -139.21)" fill="#fff"/>
    </clipPath>
  </defs>
  <g id="Group_97021" data-name="Group 97021" transform="translate(0 0)" clip-path="url(#clip-path)">
    <path id="Path_34411" data-name="Path 34411" d="M225.953,166.6h-2.8l-1.181-.394c-.073-.186-.151-.371-.231-.557l1.16-2.316-5.856-5.856-2.318,1.16c-.184-.083-.37-.16-.556-.233l-.821-2.457h-8.28l-.819,2.456q-.279.11-.556.233l-2.318-1.16-5.856,5.856,1.16,2.316c-.058.132-.113.265-.166.4a4.562,4.562,0,0,0-4.047-2.49v-9.131a4.571,4.571,0,0,0,4.565-4.565v-6.087a4.571,4.571,0,0,0-4.565-4.565H155.95a4.571,4.571,0,0,0-4.566,4.565v6.087a4.571,4.571,0,0,0,4.565,4.565v9.131a4.559,4.559,0,0,0-4.285,3.044h-4.845a7.617,7.617,0,0,0-7.609,7.609V216.82a7.617,7.617,0,0,0,7.609,7.609H166.6v6.087h-6.087v3.044h51.742v-3.044H206.17v-6.087h19.784a7.617,7.617,0,0,0,7.609-7.609V174.209a7.617,7.617,0,0,0-7.609-7.609Zm-3.978,9.525,1.181-.395h1.276v33.479h-3.044V190.949h-9.131V209.21h-3.044V197.036h-9.131V209.21h-7.609v-6.087a4.571,4.571,0,0,0,4.565-4.565V192.47a4.571,4.571,0,0,0-4.565-4.565v-9.131a4.552,4.552,0,0,0,4.044-2.493c.054.132.108.266.166.4L195.522,179l5.856,5.856,2.318-1.16c.184.083.37.16.556.233l.821,2.458h8.28l.819-2.456q.279-.11.556-.233l2.318,1.16L222.9,179l-1.16-2.316q.125-.279.234-.557Zm-3.631,33.086H215.3V193.994h3.044Zm-12.174,0h-3.044V200.08h3.044Zm-54.505-33.481a4.56,4.56,0,0,0,4.285,3.044v9.131a4.571,4.571,0,0,0-4.565,4.565v6.087a4.571,4.571,0,0,0,4.565,4.565v6.087H148.34V175.73Zm4.286,24.348a1.523,1.523,0,0,1-1.521-1.521V192.47a1.523,1.523,0,0,1,1.521-1.521h36.523a1.523,1.523,0,0,1,1.521,1.521v6.087a1.523,1.523,0,0,1-1.521,1.521Zm3.044-12.174v-9.131H189.43V187.9Zm0,15.218H189.43v6.088H158.993Zm40.087-35.238a10.5,10.5,0,0,1,.651-1.556l.352-.686-.857-1.709,2.753-2.753,1.709.853.685-.35a10.689,10.689,0,0,1,1.556-.65l.732-.237.6-1.806h3.894l.6,1.806.732.237a10.518,10.518,0,0,1,1.556.65l.685.349,1.709-.855,2.753,2.753-.857,1.709.352.686a10.706,10.706,0,0,1,.651,1.556l.237.731,1.8.6v3.894l-1.8.6-.237.731a10.5,10.5,0,0,1-.651,1.556l-.352.686.857,1.709-2.753,2.753-1.709-.853-.685.35a10.692,10.692,0,0,1-1.556.65l-.732.237-.6,1.806h-3.894l-.6-1.806-.732-.237a10.515,10.515,0,0,1-1.556-.65l-.685-.349-1.709.855-2.753-2.753.857-1.709-.352-.686a10.7,10.7,0,0,1-.651-1.556l-.237-.731-1.806-.6v-3.893l1.8-.6Zm-44.654-18.026v-6.087a1.523,1.523,0,0,1,1.521-1.521h36.523a1.523,1.523,0,0,1,1.521,1.521v6.087a1.523,1.523,0,0,1-1.521,1.521H155.948a1.523,1.523,0,0,1-1.522-1.521Zm4.566,4.565h30.436v9.131H158.993Zm-4.566,13.7a1.523,1.523,0,0,1,1.521-1.521h36.523a1.523,1.523,0,0,1,1.521,1.521v6.087a1.523,1.523,0,0,1-1.521,1.521H155.948a1.523,1.523,0,0,1-1.521-1.521Zm48.7,62.395H169.646v-6.087h33.479Zm27.392-13.7a4.571,4.571,0,0,1-4.565,4.565H146.817a4.571,4.571,0,0,1-4.565-4.565V174.208a4.571,4.571,0,0,1,4.565-4.565h4.565v3.044H148.34a3.047,3.047,0,0,0-3.044,3.044v33.479a3.047,3.047,0,0,0,3.044,3.044h76.09a3.047,3.047,0,0,0,3.044-3.044V175.729a3.047,3.047,0,0,0-3.044-3.044v-3.044h1.521a4.571,4.571,0,0,1,4.565,4.565Z" transform="translate(-139.21 -139.208)" fill="#fff"/>
  </g>
  <path id="Path_34413" data-name="Path 34413" d="M291.98,169.77h3.044v3.044H291.98Z" transform="translate(-261.544 -163.682)" fill="#ffe51c"/>
  <path id="Path_34414" data-name="Path 34414" d="M261.43,169.77h3.044v3.044H261.43Z" transform="translate(-237.08 -163.682)" fill="#ffe51c"/>
  <path id="Path_34415" data-name="Path 34415" d="M230.87,169.77h3.044v3.044H230.87Z" transform="translate(-212.609 -163.682)" fill="#ffe51c"/>
  <path id="Path_34416" data-name="Path 34416" d="M322.53,291.98h3.044v3.044H322.53Z" transform="translate(-286.007 -261.544)" fill="#fff"/>
  <path id="Path_34417" data-name="Path 34417" d="M353.09,291.98h3.044v3.044H353.09Z" transform="translate(-310.479 -261.544)" fill="#fff"/>
  <path id="Path_34418" data-name="Path 34418" d="M383.64,291.98h3.044v3.044H383.64Z" transform="translate(-334.942 -261.544)" fill="#fff"/>
  <path id="Path_34419" data-name="Path 34419" d="M230.87,414.2h3.044v3.044H230.87Z" transform="translate(-212.609 -359.414)" fill="#ffe51c"/>
  <path id="Path_34420" data-name="Path 34420" d="M291.98,414.2h3.044v3.044H291.98Z" transform="translate(-261.544 -359.414)" fill="#ffe51c"/>
  <path id="Path_34421" data-name="Path 34421" d="M261.43,414.2h3.044v3.044H261.43Z" transform="translate(-237.08 -359.414)" fill="#ffe51c"/>
  <path id="Path_34422" data-name="Path 34422" d="M340.856,522.655a1.522,1.522,0,1,1-1.522-1.521,1.521,1.521,0,0,1,1.522,1.521" transform="translate(-298.245 -445.043)" fill="#fff"/>
  <path id="Path_34423" data-name="Path 34423" d="M371.406,522.655a1.522,1.522,0,1,1-1.522-1.521,1.522,1.522,0,0,1,1.522,1.521" transform="translate(-322.708 -445.043)" fill="#fff"/>
  <path id="Path_34424" data-name="Path 34424" d="M401.966,522.655a1.522,1.522,0,1,1-1.522-1.521,1.522,1.522,0,0,1,1.522,1.521" transform="translate(-347.18 -445.043)" fill="#fff"/>
  <path id="Path_34425" data-name="Path 34425" d="M460,276.646a7.609,7.609,0,1,0-7.609-7.609A7.617,7.617,0,0,0,460,276.646Zm0-12.174a4.565,4.565,0,1,1-4.565,4.565A4.571,4.571,0,0,1,460,264.472Z" transform="translate(-389.994 -237.078)" fill="#ffe51c"/>
</svg>
