<svg xmlns="http://www.w3.org/2000/svg" width="89.532" height="94.351" viewBox="0 0 89.532 94.351">
  <g id="Group_97018" data-name="Group 97018" transform="translate(-7075.46 -3291)">
    <path id="download_6_" data-name="download (6)" d="M271.675,245.268h-9.707v-4.884a1.6,1.6,0,0,0-1.594-1.594H252.63V233.1h12.385a1.6,1.6,0,0,0,1.594-1.594V212.94a1.6,1.6,0,0,0-1.594-1.594H251.46v-4.884a1.6,1.6,0,0,0-1.594-1.594h-19.7l-.052-5.693h16.947a1.6,1.6,0,0,0,1.594-1.594v-22.6a1.6,1.6,0,0,0-1.594-1.594H209.946a1.6,1.6,0,0,0-1.594,1.594v22.6a1.6,1.6,0,0,0,1.594,1.594h16.977l.052,5.693H207.133a1.6,1.6,0,0,0-1.594,1.594v4.884H191.985a1.6,1.6,0,0,0-1.594,1.594V231.5a1.6,1.6,0,0,0,1.594,1.594h11.4v5.693h-6.765a1.6,1.6,0,0,0-1.594,1.594v4.884h-9.7a1.6,1.6,0,0,0-1.594,1.594v19.29a1.6,1.6,0,0,0,1.594,1.594h22.6a1.6,1.6,0,0,0,1.594-1.594v-19.29a1.6,1.6,0,0,0-1.594-1.594h-9.707v-3.292h28.689v3.292H217.2a1.6,1.6,0,0,0-1.594,1.594v19.29a1.6,1.6,0,0,0,1.594,1.594h22.6a1.6,1.6,0,0,0,1.594-1.594v-19.29a1.6,1.6,0,0,0-1.594-1.594h-9.7v-3.292H258.78v3.292h-9.7a1.6,1.6,0,0,0-1.594,1.594v19.29a1.6,1.6,0,0,0,1.594,1.594h22.6a1.6,1.6,0,0,0,1.594-1.594v-19.29a1.6,1.6,0,0,0-1.594-1.594ZM211.54,176.58h33.926v19.41H211.54Zm-5.207,87.976H186.922v-16.1h19.41Zm31.872,0H218.8v-16.1h19.41Zm25.215-34.648H236.312V214.532H263.42Zm-69.842-15.377h27.108v15.377H193.578Zm13,18.563h15.7a1.6,1.6,0,0,0,1.594-1.594V212.938a1.6,1.6,0,0,0-1.594-1.594H208.725v-3.292h39.547v3.292H234.717a1.6,1.6,0,0,0-1.594,1.594V231.5a1.6,1.6,0,0,0,1.594,1.594h14.724v5.693H206.576Zm63.5,31.46h-19.41v-16.1h19.41Z" transform="translate(6891.725 3117.607)" fill="#fff"/>
    <path id="download_6_2" data-name="download (6)" d="M224.424,199.175h16.947a1.6,1.6,0,0,0,1.594-1.594v-22.6a1.6,1.6,0,0,0-1.594-1.594H204.26a1.6,1.6,0,0,0-1.594,1.594v22.6a1.6,1.6,0,0,0,1.594,1.594h16.977Zm-18.57-22.6H239.78v19.41H205.855Z" transform="translate(6897.411 3117.607)" fill="#ffe51c"/>
  </g>
</svg>
