<svg xmlns="http://www.w3.org/2000/svg" width="94.35" height="94.352" viewBox="0 0 94.35 94.352">
  <g id="Group_97012" data-name="Group 97012" transform="translate(-10550.341 -294)">
    <path id="download_4_" data-name="download (4)" d="M246.493,213.711l-.822-29.032c-.078-2.757-2.826-5.227-5.79-5.227H239.8c-1.449.023-6.177.813-6.141,10l.06,15.771a7.46,7.46,0,0,1-.158,1.587,5.284,5.284,0,0,0-.658-.8,5.428,5.428,0,0,0-7.476-.053,1.619,1.619,0,0,0-.138.142,67.989,67.989,0,0,1-8.207,7.784c-.878.741-1.709,1.441-2.389,2.053-2.8,2.526-3.176,6.027-3.172,9.119l.029,19.961a1.474,1.474,0,0,0,1.474,1.472h16.1a1.473,1.473,0,0,0,1.474-1.474V234.372l12.7-12.7a10.608,10.608,0,0,0,3.2-7.961ZM228.071,232.72a1.475,1.475,0,0,0-.431,1.043v9.781H214.49l-.027-18.489c0-2.565.26-5.177,2.2-6.924.644-.58,1.418-1.233,2.315-1.989a71.019,71.019,0,0,0,8.487-8.051,2.446,2.446,0,0,1,3.35.007,2.383,2.383,0,0,1,.347,2.924l-.4.49-10.073,10.073a1.474,1.474,0,0,0,2.086,2.084L232.9,213.545l0,0a5.308,5.308,0,0,0,.65-.787l.664-.817a10.265,10.265,0,0,0,2.452-6.726l-.06-15.771c-.016-4.375,1.194-7.008,3.24-7.04a2.9,2.9,0,0,1,2.88,2.362l.822,29.032a7.62,7.62,0,0,1-2.344,5.794Zm-44.113-16.78c-.68-.613-1.511-1.313-2.389-2.053a68.153,68.153,0,0,1-8.207-7.784,1.415,1.415,0,0,0-.138-.142,5.331,5.331,0,0,0-8.135.853,7.52,7.52,0,0,1-.158-1.587l.06-15.771c.035-9.187-4.692-9.977-6.141-10h-.086c-2.963,0-5.712,2.471-5.79,5.227l-.822,29.03a10.6,10.6,0,0,0,3.206,7.961l12.7,12.7v10.643a1.473,1.473,0,0,0,1.474,1.474h16.1a1.475,1.475,0,0,0,1.474-1.472l.029-19.961c0-3.09-.37-6.591-3.174-9.118Zm.2,27.6H171.006v-9.781a1.475,1.475,0,0,0-.431-1.043l-13.133-13.13A7.621,7.621,0,0,1,155.1,213.8l.822-29.032a2.9,2.9,0,0,1,2.841-2.362h.039c2.045.033,3.256,2.665,3.24,7.04l-.06,15.771a10.257,10.257,0,0,0,2.452,6.726l.661.814a5.348,5.348,0,0,0,.652.79l0,0L175.87,223.67a1.474,1.474,0,1,0,2.086-2.084l-10.073-10.073-.4-.487a2.395,2.395,0,0,1,.345-2.927,2.445,2.445,0,0,1,3.35-.007,70.953,70.953,0,0,0,8.487,8.051c.9.756,1.672,1.409,2.315,1.989,1.938,1.747,2.2,4.36,2.2,6.924Zm15.167-85.762a21.633,21.633,0,1,0,21.633,21.633A21.657,21.657,0,0,0,199.323,157.781ZM209.909,194.8l-.46-.8a1.474,1.474,0,0,0-2.553,1.474l.463.8a18.529,18.529,0,0,1-6.561,1.76v-.927a1.474,1.474,0,0,0-2.949,0v.927a18.53,18.53,0,0,1-6.561-1.76l.463-.8A1.474,1.474,0,1,0,189.2,194l-.459.8a18.848,18.848,0,0,1-4.8-4.8l.8-.459a1.474,1.474,0,1,0-1.474-2.553l-.8.463a18.528,18.528,0,0,1-1.76-6.561h.927a1.474,1.474,0,0,0,0-2.949H180.7a18.53,18.53,0,0,1,1.76-6.561l.8.463a1.474,1.474,0,0,0,1.474-2.553l-.8-.459a18.849,18.849,0,0,1,4.8-4.8l.459.8a1.474,1.474,0,0,0,2.554-1.474l-.463-.8a18.529,18.529,0,0,1,6.561-1.76v.927a1.474,1.474,0,1,0,2.949,0v-.929a18.53,18.53,0,0,1,6.561,1.76l-.463.8a1.474,1.474,0,1,0,2.553,1.474l.46-.8a18.849,18.849,0,0,1,4.8,4.8l-.8.459a1.474,1.474,0,0,0,1.474,2.553l.8-.463a18.53,18.53,0,0,1,1.76,6.561h-.927a1.474,1.474,0,1,0,0,2.949h.927a18.531,18.531,0,0,1-1.76,6.561l-.8-.463a1.474,1.474,0,0,0-1.474,2.553l.8.459a18.828,18.828,0,0,1-4.8,4.8Zm-1.516-11.853-4.873-2.813a4.249,4.249,0,0,0-2.722-4.715v-8.826a1.474,1.474,0,1,0-2.949,0v8.826a4.258,4.258,0,1,0,4.2,7.268l4.875,2.814a1.474,1.474,0,1,0,1.474-2.554Zm-9.07-2.224a1.31,1.31,0,1,1,1.31-1.31A1.311,1.311,0,0,1,199.322,180.723Zm27.274-1.311a27.273,27.273,0,1,0-27.274,27.272A27.306,27.306,0,0,0,226.6,179.412Zm-27.274,24.326a24.325,24.325,0,1,1,24.326-24.324A24.353,24.353,0,0,1,199.322,203.739Z" transform="translate(10398.193 141.862)" fill="#fff"/>
    <path id="download_4_2" data-name="download (4)" d="M273.861,157.781a21.633,21.633,0,1,0,21.633,21.633A21.658,21.658,0,0,0,273.861,157.781ZM284.447,194.8l-.46-.8a1.474,1.474,0,0,0-2.553,1.474l.463.8a18.529,18.529,0,0,1-6.561,1.76v-.927a1.474,1.474,0,0,0-2.949,0v.927a18.53,18.53,0,0,1-6.561-1.76l.463-.8A1.474,1.474,0,0,0,263.736,194l-.459.8a18.848,18.848,0,0,1-4.8-4.8l.8-.459a1.474,1.474,0,1,0-1.474-2.553l-.8.463a18.529,18.529,0,0,1-1.76-6.561h.927a1.474,1.474,0,0,0,0-2.949h-.927a18.53,18.53,0,0,1,1.76-6.561l.8.463a1.474,1.474,0,1,0,1.474-2.553l-.8-.459a18.849,18.849,0,0,1,4.8-4.8l.459.8a1.474,1.474,0,0,0,2.554-1.474l-.463-.8a18.529,18.529,0,0,1,6.561-1.76v.927a1.474,1.474,0,1,0,2.949,0v-.929a18.53,18.53,0,0,1,6.561,1.76l-.463.8a1.474,1.474,0,1,0,2.553,1.474l.46-.8a18.849,18.849,0,0,1,4.8,4.8l-.8.459a1.474,1.474,0,0,0,1.474,2.553l.8-.463a18.53,18.53,0,0,1,1.76,6.561h-.927a1.474,1.474,0,1,0,0,2.949h.927a18.531,18.531,0,0,1-1.76,6.561l-.8-.463a1.474,1.474,0,0,0-1.474,2.553l.8.459a18.83,18.83,0,0,1-4.8,4.8Zm-1.516-11.853-4.873-2.813a4.249,4.249,0,0,0-2.722-4.715v-8.826a1.474,1.474,0,1,0-2.949,0v8.826a4.258,4.258,0,1,0,4.2,7.268l4.875,2.814a1.474,1.474,0,1,0,1.474-2.554Zm-9.07-2.224a1.31,1.31,0,1,1,1.31-1.31A1.311,1.311,0,0,1,273.86,180.723Zm27.274-1.311a27.273,27.273,0,1,0-27.274,27.272A27.306,27.306,0,0,0,301.135,179.412ZM273.86,203.739a24.325,24.325,0,1,1,24.326-24.324A24.353,24.353,0,0,1,273.86,203.739Z" transform="translate(10323.654 141.862)" fill="#ffe51c"/>
  </g>
</svg>
