<svg xmlns="http://www.w3.org/2000/svg" xmlns:xlink="http://www.w3.org/1999/xlink" width="76.903" height="94.352" viewBox="0 0 76.903 94.352">
  <defs>
    <clipPath id="clip-path">
      <path id="Path_34408" data-name="Path 34408" d="M183,139.21h76.9v94.352H183Z" transform="translate(-183 -139.21)" fill="#fff"/>
    </clipPath>
  </defs>
  <g id="download_5_" data-name="download (5)" transform="translate(-183 -139.21)">
    <path id="Path_34397" data-name="Path 34397" d="M451.419,198.41H436.676a1.474,1.474,0,0,0-1.474,1.474v14.742a1.474,1.474,0,0,0,1.474,1.474h14.742a1.473,1.473,0,0,0,1.474-1.474V199.884a1.474,1.474,0,0,0-1.474-1.474ZM438.15,213.152V201.358h10.12l-4.322,5.188-.333-.333a1.474,1.474,0,1,0-2.085,2.085L443,209.772a1.476,1.476,0,0,0,1.044.432c.022,0,.044,0,.066,0a1.48,1.48,0,0,0,1.067-.529l4.764-5.717v9.2Z" transform="translate(-201.955 -47.406)" fill="#ffe51c"/>
    <path id="Path_34398" data-name="Path 34398" d="M300.413,220.61H273.876a1.474,1.474,0,1,0,0,2.948h26.537a1.474,1.474,0,0,0,0-2.948Z" transform="translate(-71.59 -65.183)" fill="#ffe51c"/>
    <path id="Path_34399" data-name="Path 34399" d="M300.413,250.21H273.876a1.474,1.474,0,1,0,0,2.948h26.537a1.474,1.474,0,0,0,0-2.948Z" transform="translate(-71.59 -88.885)" fill="#ffe51c"/>
    <path id="Path_34400" data-name="Path 34400" d="M451.419,316.8H436.676a1.474,1.474,0,0,0-1.474,1.474v14.742a1.473,1.473,0,0,0,1.474,1.474h14.742a1.473,1.473,0,0,0,1.474-1.474V318.274a1.474,1.474,0,0,0-1.474-1.474ZM438.15,331.542V319.748h10.12l-4.322,5.188-.333-.333a1.474,1.474,0,1,0-2.085,2.085L443,328.162a1.476,1.476,0,0,0,1.044.432c.022,0,.044,0,.066,0a1.481,1.481,0,0,0,1.067-.529l4.764-5.717v9.2Z" transform="translate(-201.955 -142.209)" fill="#fff"/>
    <path id="Path_34401" data-name="Path 34401" d="M300.413,339H273.876a1.474,1.474,0,1,0,0,2.948h26.537a1.474,1.474,0,0,0,0-2.948Z" transform="translate(-71.59 -159.986)" fill="#fff"/>
    <path id="Path_34402" data-name="Path 34402" d="M300.413,368.6H273.876a1.474,1.474,0,0,0,0,2.948h26.537a1.474,1.474,0,0,0,0-2.948Z" transform="translate(-71.59 -183.689)" fill="#fff"/>
    <path id="Path_34403" data-name="Path 34403" d="M451.419,435.2H436.676a1.474,1.474,0,0,0-1.474,1.474v14.742a1.474,1.474,0,0,0,1.474,1.474h14.742a1.473,1.473,0,0,0,1.474-1.474V436.674a1.474,1.474,0,0,0-1.474-1.474ZM438.15,449.942V438.148h10.12l-4.322,5.188-.333-.333a1.474,1.474,0,1,0-2.085,2.085L443,446.562a1.474,1.474,0,0,0,1.044.433c.022,0,.044,0,.066,0a1.481,1.481,0,0,0,1.067-.529l4.764-5.718v9.2Z" transform="translate(-201.955 -237.02)" fill="#fff"/>
    <path id="Path_34404" data-name="Path 34404" d="M359.671,457.4H347.877a1.474,1.474,0,1,0,0,2.948h11.794a1.474,1.474,0,0,0,0-2.948Z" transform="translate(-130.848 -254.797)" fill="#fff"/>
    <path id="Path_34405" data-name="Path 34405" d="M383.374,487h-5.9a1.474,1.474,0,0,0,0,2.948h5.9a1.474,1.474,0,0,0,0-2.948Z" transform="translate(-154.551 -278.5)" fill="#fff"/>
    <path id="Path_34406" data-name="Path 34406" d="M241.307,487a1.474,1.474,0,0,0-1.474,1.474v6.761l-3.991,3.991a1.474,1.474,0,1,0,2.084,2.085l4.423-4.423a1.47,1.47,0,0,0,.432-1.042v-7.371A1.474,1.474,0,0,0,241.307,487Z" transform="translate(-41.968 -278.5)" fill="#fff"/>
    <g id="Group_97015" data-name="Group 97015" transform="translate(183 139.21)" clip-path="url(#clip-path)">
      <path id="Path_34407" data-name="Path 34407" d="M255.851,139.21h-58.97a4.428,4.428,0,0,0-4.423,4.423v59.285a16.207,16.207,0,1,0,19.872,24.747h43.522a4.428,4.428,0,0,0,4.423-4.423V143.633a4.428,4.428,0,0,0-4.423-4.423Zm-56.022,91.4A13.268,13.268,0,1,1,213.1,217.345,13.283,13.283,0,0,1,199.83,230.613Zm57.5-7.372a1.476,1.476,0,0,1-1.474,1.474h-41.6a16.181,16.181,0,0,0-18.85-22.96V143.632a1.475,1.475,0,0,1,1.474-1.474h58.97a1.476,1.476,0,0,1,1.474,1.474Z" transform="translate(-183.491 -139.21)" fill="#fff"/>
    </g>
  </g>
</svg>
